<svg id="Layer_1" data-name="Layer 1" xmlns="http://www.w3.org/2000/svg" viewBox="0 0 39.63 39.63"><defs><style>.cls-1{fill:#808082;}</style></defs><path class="cls-1" d="M17,39.43l-.14,0Z"/><path class="cls-1" d="M18.93,39.61h0Z"/><path class="cls-1" d="M19.4,39.63h0Z"/><path class="cls-1" d="M20.45,39.62h0Z"/><path class="cls-1" d="M18.38,39.58h0Z"/><path class="cls-1" d="M17.94,39.55l-.14,0Z"/><path class="cls-1" d="M16.48,39.36l-.1,0Z"/><path class="cls-1" d="M22.43,39.46l-.25,0Z"/><path class="cls-1" d="M20.9,39.6h0Z"/><path class="cls-1" d="M22.87,39.4l-.27,0Z"/><path class="cls-1" d="M21.35,39.58h0Z"/><path class="cls-1" d="M22,39.52l-.33,0Z"/><path class="cls-1" d="M14.64,39l-.25-.07Z"/><path class="cls-1" d="M15.56,39.18l-.17,0Z"/><path class="cls-1" d="M15,39.06,14.81,39Z"/><path class="cls-1" d="M16,39.26l-.16,0Z"/><path class="cls-1" d="M17.38,39.49h0Z"/><path class="cls-1" d="M19.73,39.63h0Z"/><path class="cls-1" d="M14.81,39l-.17,0Z"/><path class="cls-1" d="M23,39.38l-.12,0Z"/><path class="cls-1" d="M20.25,39.63h0Z"/><path class="cls-1" d="M15.39,39.14,15,39.06Z"/><path class="cls-1" d="M19.73,39.63h0Z"/><path class="cls-1" d="M19.23,39.62h0Z"/><path class="cls-1" d="M14.39,38.88l-.1,0Z"/><path class="cls-1" d="M22.6,39.44l-.17,0Z"/><path class="cls-1" d="M18.79,39.61l-.41,0Z"/><path class="cls-1" d="M21.15,39.59h0Z"/><path class="cls-1" d="M17.8,39.53l-.42,0Z"/><path class="cls-1" d="M16.38,39.34l-.4-.08Z"/><path class="cls-1" d="M22.18,39.49l-.2,0Z"/><path class="cls-1" d="M16.81,39.41l-.33,0Z"/><path class="cls-1" d="M17.3,39.48l-.35,0Z"/><path class="cls-1" d="M15.82,39.23l-.26,0Z"/><path class="cls-1" d="M21.65,39.55l-.3,0Z"/><path class="cls-1" d="M18.24,39.57l-.3,0Z"/><path class="cls-1" d="M20.7,39.61h0Z"/><path class="cls-1" d="M39.63,19.72A19.79,19.79,0,0,0,19.82,0H18.75l-.31,0H18.3l-.43,0-.14,0-.29,0-.21,0L17,.2l-.23,0-.18,0c-.33,0-.65.11-1,.18h-.05l-.35.08h0A19.69,19.69,0,0,0,8.27,3.71.77.77,0,0,0,9.17,5,18.05,18.05,0,0,1,15.67,2l.08,0,.3-.06.17,0,.18,0a18.52,18.52,0,0,1,3.42-.32A18.29,18.29,0,0,1,38.09,19.82a18.52,18.52,0,0,1-.32,3.42c0,.06,0,.12,0,.17l0,.18c0,.1,0,.19-.07.29l0,.09a18.09,18.09,0,0,1-3,6.49.78.78,0,0,0,1.26.91,19.62,19.62,0,0,0,3.18-6.94v0a3.59,3.59,0,0,0,.08-.35v0c.07-.32.13-.65.18-1l0-.19a1.7,1.7,0,0,0,0-.22l0-.23c0-.06,0-.13,0-.2s0-.2,0-.3,0-.09,0-.14,0-.28,0-.42a.76.76,0,0,1,0-.15c0-.1,0-.21,0-.31v-.16c0-.1,0-.21,0-.31a.66.66,0,0,0,0-.14v-.45h0Z"/><path class="cls-1" d="M30.46,34.66a17.89,17.89,0,0,1-6.5,3l-.07,0-.31.07-.16,0-.19,0a18.27,18.27,0,0,1-7.3-.1l-.15,0-.15,0-.35-.08h0a18.26,18.26,0,0,1-6-2.81c-.51-.37-1-.77-1.48-1.18a17.8,17.8,0,0,1-1.62-1.63,17,17,0,0,1-1.18-1.48,18,18,0,0,1-2.81-6v0L2,24a.83.83,0,0,0,0-.15l0-.14a18.55,18.55,0,0,1-.09-7.31l0-.19a.94.94,0,0,1,0-.16l.06-.3,0-.08A18.05,18.05,0,0,1,5,9.17a.77.77,0,0,0-1.26-.9A19.73,19.73,0,0,0,.54,15.2v0c0,.11-.05.23-.08.34v.06c-.07.31-.13.63-.18.95l0,.19L.2,17l0,.22,0,.2,0,.3c0,.05,0,.09,0,.14l0,.43a.71.71,0,0,0,0,.14c0,.11,0,.21,0,.31s0,.11,0,.16,0,.21,0,.31v.15c0,.15,0,.3,0,.45H0c0,.15,0,.29,0,.44v.12c0,.12,0,.25,0,.37v.08c0,.14,0,.29,0,.44v.08l0,.38v.09c0,.15,0,.3,0,.45h0l.06.43v.09c0,.14,0,.28.07.41v0c0,.15.06.29.08.44l0,.1c0,.11,0,.22.07.33l0,.12.09.4a.57.57,0,0,1,0,.14L.69,25c0,.07,0,.14.05.2l.06.19c0,.16.09.32.14.48l0,0,.1.31v0a19.64,19.64,0,0,0,1.9,4A18.31,18.31,0,0,0,4.11,31.9,19.29,19.29,0,0,0,5.8,33.83a20.48,20.48,0,0,0,1.93,1.69,19.89,19.89,0,0,0,1.63,1.14,19.62,19.62,0,0,0,4.93,2.2l.1,0,.25.07.17,0,.23.06.35.08.17,0,.26,0,.16,0,.4.08.1,0,.33,0,.14,0,.35,0h.08l.42,0,.14,0,.3,0h.14l.41,0h2.56l.3,0,.33,0,.2,0,.25,0,.17,0,.27,0,.12,0a19.61,19.61,0,0,0,8.38-3.46.78.78,0,0,0-.91-1.26Z"/><path class="cls-1" d="M6.35,7.13a.78.78,0,1,0-.57-1.3h0a.78.78,0,0,0,.57,1.3Z"/><path class="cls-1" d="M32.74,32.74h0a.78.78,0,0,0,.54,1.32.78.78,0,0,0,.55-.23h0a.78.78,0,0,0,0-1.1A.76.76,0,0,0,32.74,32.74Z"/><path class="cls-1" d="M28,19V13.91a2,2,0,0,0-2-2H10.73a2,2,0,0,0-2,2V24.09a2,2,0,0,0,2,2H22.14a5.6,5.6,0,0,0,5.38,4.07,5.49,5.49,0,0,0,2.8-.75.51.51,0,0,0,.19-.69.52.52,0,0,0-.7-.19,4.58,4.58,0,1,1,2.29-4v.5a1,1,0,1,1-2,0v-2a.51.51,0,0,0-.51-.51.53.53,0,0,0-.35.14,2.55,2.55,0,1,0,.21,3.57,2,2,0,0,0,3.7-1.17v-.5A5.61,5.61,0,0,0,28,19Zm-17.3-6.13H26.05l-7.27,6a.85.85,0,0,1-.8,0l-7.31-6ZM27,19a5.61,5.61,0,0,0-5.09,5.58,4.07,4.07,0,0,0,0,.5H10.73a1,1,0,0,1-1-1V13.91a1.11,1.11,0,0,1,.08-.41l7.58,6.22a1.84,1.84,0,0,0,1,.29,1.8,1.8,0,0,0,.95-.27l.08,0,7.54-6.19a1.11,1.11,0,0,1,.08.41V19Zm.51,7.1a1.53,1.53,0,1,1,1.53-1.52A1.53,1.53,0,0,1,27.52,26.12Z"/></svg>