<?xml version="1.0" encoding="utf-8"?>
<!-- Generator: Adobe Illustrator 25.2.3, SVG Export Plug-In . SVG Version: 6.00 Build 0)  -->
<svg version="1.1" id="Layer_1" xmlns="http://www.w3.org/2000/svg" xmlns:xlink="http://www.w3.org/1999/xlink" x="0px" y="0px"
	 viewBox="0 0 19.1 19.1" style="enable-background:new 0 0 19.1 19.1;" xml:space="preserve">
<style type="text/css">
	.st0{fill:#FFFFFF;}
</style>
<g>
	<g>
		<g>
			<g>
				<path class="st0" d="M8.17,19c-0.02,0-0.05-0.01-0.07-0.01C8.12,18.99,8.14,18.99,8.17,19z"/>
				<path class="st0" d="M9.12,19.09c-0.02,0-0.04,0-0.07,0C9.08,19.08,9.1,19.08,9.12,19.09z"/>
				<path class="st0" d="M9.35,19.09c-0.03,0-0.05,0-0.08,0C9.29,19.09,9.32,19.09,9.35,19.09z"/>
				<path class="st0" d="M9.85,19.09c-0.03,0-0.06,0-0.1,0C9.79,19.09,9.82,19.09,9.85,19.09z"/>
				<path class="st0" d="M8.86,19.07c-0.02,0-0.04,0-0.07-0.01C8.81,19.07,8.83,19.07,8.86,19.07z"/>
				<path class="st0" d="M8.64,19.05c-0.02,0-0.05,0-0.07-0.01C8.6,19.05,8.62,19.05,8.64,19.05z"/>
				<path class="st0" d="M7.94,18.96c-0.02,0-0.03-0.01-0.05-0.01C7.91,18.96,7.92,18.96,7.94,18.96z"/>
				<path class="st0" d="M10.81,19.01c-0.04,0.01-0.08,0.01-0.12,0.02C10.73,19.02,10.77,19.02,10.81,19.01z"/>
				<path class="st0" d="M10.07,19.08c-0.03,0-0.07,0-0.1,0C10,19.08,10.04,19.08,10.07,19.08z"/>
				<path class="st0" d="M11.02,18.98C10.98,18.99,10.93,19,10.89,19C10.93,19,10.98,18.99,11.02,18.98z"/>
				<path class="st0" d="M10.29,19.07c-0.03,0-0.07,0-0.1,0.01C10.22,19.07,10.25,19.07,10.29,19.07z"/>
				<path class="st0" d="M10.59,19.04c-0.05,0.01-0.11,0.01-0.16,0.02C10.48,19.05,10.54,19.04,10.59,19.04z"/>
				<path class="st0" d="M7.05,18.77c-0.04-0.01-0.08-0.02-0.12-0.03C6.97,18.75,7.01,18.76,7.05,18.77z"/>
				<path class="st0" d="M7.5,18.88c-0.03-0.01-0.06-0.01-0.08-0.02C7.44,18.86,7.47,18.87,7.5,18.88z"/>
				<path class="st0" d="M7.25,18.82c-0.04-0.01-0.07-0.02-0.11-0.03C7.17,18.8,7.21,18.81,7.25,18.82z"/>
				<path class="st0" d="M7.7,18.92c-0.03,0-0.05-0.01-0.08-0.02C7.65,18.91,7.67,18.91,7.7,18.92z"/>
				<path class="st0" d="M8.37,19.02c-0.01,0-0.03,0-0.04-0.01C8.35,19.02,8.36,19.02,8.37,19.02z"/>
				<path class="st0" d="M9.51,19.1c0.01,0,0.03,0,0.04,0c0.02,0,0.04,0,0.06,0c-0.02,0-0.04,0-0.06,0
					C9.53,19.1,9.52,19.1,9.51,19.1z"/>
				<path class="st0" d="M7.14,18.79c-0.03-0.01-0.06-0.01-0.08-0.02C7.08,18.77,7.11,18.78,7.14,18.79z"/>
				<path class="st0" d="M11.08,18.97c-0.02,0-0.04,0.01-0.06,0.01C11.04,18.98,11.06,18.98,11.08,18.97z"/>
				<path class="st0" d="M9.76,19.09c-0.05,0-0.1,0-0.15,0C9.65,19.09,9.71,19.09,9.76,19.09z"/>
				<path class="st0" d="M7.41,18.86c-0.06-0.01-0.11-0.03-0.17-0.04C7.3,18.83,7.36,18.84,7.41,18.86z"/>
				<path class="st0" d="M9.51,19.1c-0.05,0-0.11,0-0.16,0C9.4,19.09,9.45,19.09,9.51,19.1z"/>
				<path class="st0" d="M9.26,19.09c-0.05,0-0.1,0-0.14-0.01C9.17,19.09,9.22,19.09,9.26,19.09z"/>
				<path class="st0" d="M6.93,18.73c-0.02,0-0.03-0.01-0.05-0.01C6.9,18.73,6.92,18.73,6.93,18.73z"/>
				<path class="st0" d="M10.89,19c-0.03,0-0.05,0.01-0.08,0.01C10.84,19.01,10.86,19.01,10.89,19z"/>
				<path class="st0" d="M9.05,19.08c-0.07,0-0.13-0.01-0.2-0.01C8.92,19.08,8.99,19.08,9.05,19.08z"/>
				<path class="st0" d="M10.19,19.07c-0.04,0-0.08,0.01-0.12,0.01C10.11,19.08,10.15,19.08,10.19,19.07z"/>
				<path class="st0" d="M8.57,19.05c-0.07-0.01-0.13-0.01-0.2-0.02C8.44,19.03,8.51,19.04,8.57,19.05z"/>
				<path class="st0" d="M7.89,18.95c-0.06-0.01-0.13-0.02-0.19-0.04C7.76,18.93,7.83,18.94,7.89,18.95z"/>
				<path class="st0" d="M10.69,19.03c-0.03,0-0.07,0.01-0.1,0.01C10.62,19.04,10.65,19.03,10.69,19.03z"/>
				<path class="st0" d="M8.1,18.99c-0.05-0.01-0.11-0.02-0.16-0.03C7.99,18.97,8.04,18.98,8.1,18.99z"/>
				<path class="st0" d="M8.33,19.02C8.28,19.01,8.22,19,8.17,19C8.22,19,8.28,19.01,8.33,19.02z"/>
				<path class="st0" d="M7.62,18.9c-0.04-0.01-0.08-0.02-0.13-0.03C7.54,18.88,7.58,18.89,7.62,18.9z"/>
				<path class="st0" d="M10.43,19.06c-0.05,0-0.1,0.01-0.14,0.01C10.33,19.06,10.38,19.06,10.43,19.06z"/>
				<path class="st0" d="M8.79,19.07c-0.05,0-0.1-0.01-0.15-0.01C8.69,19.06,8.74,19.06,8.79,19.07z"/>
				<path class="st0" d="M9.97,19.09c-0.04,0-0.08,0-0.12,0C9.89,19.09,9.93,19.09,9.97,19.09z"/>
				<g>
					<path class="st0" d="M19.1,9.5c-0.01-2.53-1-4.91-2.8-6.7c-0.77-0.77-1.64-1.39-2.59-1.85C12.43,0.33,11.01,0,9.55,0
						c0,0,0,0,0,0C9.47,0,9.4,0,9.33,0C9.31,0,9.29,0,9.26,0c-0.05,0-0.1,0-0.15,0.01c-0.03,0-0.05,0-0.08,0
						c-0.05,0-0.1,0.01-0.15,0.01c-0.02,0-0.05,0-0.07,0C8.75,0.03,8.68,0.04,8.61,0.05c-0.02,0-0.04,0-0.07,0.01
						c-0.05,0-0.1,0.01-0.14,0.02c-0.03,0-0.07,0.01-0.1,0.01c-0.04,0-0.07,0.01-0.11,0.01C8.16,0.1,8.12,0.11,8.08,0.11
						C8.06,0.12,8.03,0.12,8,0.13C7.84,0.15,7.68,0.18,7.53,0.21c-0.01,0-0.02,0-0.02,0C7.45,0.23,7.4,0.24,7.34,0.26
						c0,0-0.01,0-0.01,0C6.13,0.54,5,1.06,3.98,1.79C3.82,1.91,3.78,2.14,3.9,2.31c0.12,0.17,0.35,0.21,0.52,0.09
						c0.95-0.68,2.01-1.16,3.13-1.42c0.01,0,0.03-0.01,0.04-0.01c0.05-0.01,0.1-0.02,0.14-0.03c0.03-0.01,0.05-0.01,0.08-0.02
						C7.84,0.91,7.87,0.9,7.9,0.9c0.54-0.1,1.09-0.15,1.65-0.15c4.85,0,8.8,3.95,8.8,8.8c0,0.56-0.05,1.11-0.15,1.65
						c-0.01,0.03-0.01,0.06-0.02,0.08c-0.01,0.03-0.01,0.06-0.02,0.09c-0.01,0.05-0.02,0.09-0.03,0.14c0,0.02-0.01,0.03-0.01,0.05
						c-0.26,1.12-0.74,2.18-1.42,3.13c-0.12,0.17-0.08,0.4,0.09,0.52c0.07,0.05,0.14,0.07,0.22,0.07c0.12,0,0.23-0.05,0.3-0.16
						c0.73-1.02,1.25-2.15,1.53-3.34c0,0,0-0.01,0-0.01c0.01-0.06,0.03-0.11,0.04-0.17c0-0.01,0-0.01,0-0.02
						c0.03-0.16,0.06-0.31,0.09-0.47c0-0.03,0.01-0.06,0.01-0.09C18.99,10.97,19,10.94,19,10.9c0.01-0.04,0.01-0.07,0.01-0.11
						c0-0.03,0.01-0.07,0.01-0.1c0.01-0.05,0.01-0.09,0.02-0.14c0-0.02,0.01-0.05,0.01-0.07c0.01-0.07,0.01-0.14,0.02-0.21
						c0-0.02,0-0.05,0-0.07c0-0.05,0.01-0.1,0.01-0.15c0-0.03,0-0.05,0-0.08c0-0.05,0-0.1,0.01-0.15c0-0.02,0-0.05,0-0.07
						c0-0.07,0-0.14,0-0.22v0C19.1,9.53,19.1,9.52,19.1,9.5z"/>
					<path class="st0" d="M14.68,16.7c-0.95,0.68-2.01,1.16-3.13,1.42c-0.01,0-0.03,0.01-0.04,0.01c-0.05,0.01-0.1,0.02-0.14,0.03
						c-0.03,0.01-0.05,0.01-0.08,0.02c-0.03,0.01-0.06,0.01-0.09,0.02c-0.53,0.1-1.08,0.15-1.64,0.15c-0.64,0-1.27-0.07-1.87-0.2
						c-0.02,0-0.05-0.01-0.07-0.01c-0.02-0.01-0.05-0.01-0.07-0.02c-0.06-0.01-0.11-0.03-0.17-0.04c-0.01,0-0.01,0-0.02-0.01
						c-1.06-0.27-2.03-0.74-2.9-1.35c-0.25-0.18-0.49-0.37-0.71-0.57c-0.28-0.24-0.54-0.5-0.78-0.78c-0.2-0.23-0.39-0.47-0.57-0.71
						c-0.62-0.86-1.08-1.84-1.36-2.9c0-0.01,0-0.01,0-0.02c-0.01-0.06-0.03-0.11-0.04-0.17c-0.01-0.02-0.01-0.05-0.02-0.07
						c-0.01-0.02-0.01-0.05-0.02-0.07c-0.13-0.6-0.2-1.23-0.2-1.87c0-0.56,0.05-1.11,0.15-1.64C0.9,7.87,0.91,7.84,0.92,7.81
						c0.01-0.03,0.01-0.05,0.02-0.08c0.01-0.05,0.02-0.1,0.03-0.15c0-0.01,0.01-0.02,0.01-0.04c0.26-1.12,0.74-2.18,1.42-3.13
						c0.12-0.17,0.08-0.4-0.09-0.52c-0.17-0.12-0.4-0.08-0.52,0.09C1.06,5,0.54,6.13,0.26,7.32c0,0.01,0,0.01,0,0.02
						C0.24,7.4,0.23,7.45,0.22,7.51c0,0.01,0,0.02-0.01,0.03C0.18,7.69,0.15,7.84,0.13,7.99C0.12,8.02,0.12,8.05,0.11,8.09
						C0.11,8.12,0.1,8.16,0.1,8.19C0.09,8.23,0.09,8.27,0.08,8.3c0,0.03-0.01,0.06-0.01,0.1C0.06,8.45,0.06,8.5,0.05,8.54
						c0,0.02,0,0.04-0.01,0.06C0.04,8.68,0.03,8.75,0.03,8.82c0,0.02,0,0.05,0,0.07c0,0.05-0.01,0.1-0.01,0.15c0,0.03,0,0.05,0,0.08
						c0,0.05,0,0.1-0.01,0.15c0,0.02,0,0.05,0,0.07C0,9.4,0,9.48,0,9.55v0v0c0,0.07,0,0.14,0,0.21C0,9.78,0,9.8,0,9.82
						c0,0.06,0,0.12,0.01,0.18c0,0.01,0,0.02,0,0.04c0,0.07,0.01,0.14,0.01,0.21c0,0.01,0,0.03,0,0.04c0,0.06,0.01,0.12,0.02,0.18
						c0,0.01,0,0.03,0,0.04c0.01,0.07,0.02,0.14,0.02,0.22c0,0,0,0,0,0c0.01,0.07,0.02,0.14,0.03,0.21c0,0.01,0,0.03,0.01,0.04
						c0.01,0.07,0.02,0.13,0.03,0.2c0,0,0,0.01,0,0.01c0.01,0.07,0.03,0.14,0.04,0.21c0,0.02,0.01,0.03,0.01,0.05
						c0.01,0.05,0.02,0.11,0.03,0.16c0,0.02,0.01,0.04,0.01,0.06c0.01,0.06,0.03,0.13,0.05,0.19c0.01,0.02,0.01,0.05,0.02,0.07
						c0.01,0.04,0.02,0.08,0.03,0.12c0.01,0.03,0.02,0.06,0.03,0.1c0.01,0.03,0.02,0.06,0.03,0.09c0.02,0.08,0.05,0.16,0.07,0.23
						c0,0.01,0,0.01,0.01,0.02c0.02,0.05,0.03,0.1,0.05,0.15c0,0,0,0.01,0,0.01c0.23,0.68,0.54,1.32,0.92,1.93
						c0.17,0.27,0.35,0.53,0.55,0.79C2.23,15.7,2.5,16.01,2.8,16.3c0.29,0.29,0.6,0.57,0.93,0.82c0.25,0.2,0.52,0.38,0.79,0.55
						c0.74,0.46,1.54,0.82,2.37,1.06c0.02,0,0.03,0.01,0.05,0.01c0.04,0.01,0.08,0.02,0.12,0.03c0.03,0.01,0.06,0.01,0.08,0.02
						c0.04,0.01,0.07,0.02,0.11,0.03c0.06,0.01,0.11,0.03,0.17,0.04c0.03,0.01,0.06,0.01,0.08,0.02c0.04,0.01,0.08,0.02,0.13,0.03
						c0.03,0.01,0.05,0.01,0.08,0.02c0.06,0.01,0.13,0.02,0.19,0.04c0.02,0,0.03,0.01,0.05,0.01c0.05,0.01,0.11,0.02,0.16,0.03
						c0.02,0,0.05,0.01,0.07,0.01c0.06,0.01,0.11,0.02,0.17,0.02c0.01,0,0.03,0,0.04,0.01c0.07,0.01,0.13,0.02,0.2,0.02
						c0.02,0,0.05,0,0.07,0.01c0.05,0,0.1,0.01,0.15,0.01c0.02,0,0.04,0,0.07,0.01c0.07,0,0.13,0.01,0.2,0.01c0.02,0,0.04,0,0.07,0
						c0.05,0,0.1,0,0.14,0.01c0.03,0,0.05,0,0.08,0c0.05,0,0.11,0,0.16,0c0.01,0,0.03,0,0.04,0c0.02,0,0.04,0,0.06,0
						c0.05,0,0.1,0,0.15,0c0.03,0,0.06,0,0.1,0c0.04,0,0.08,0,0.12,0c0.03,0,0.07,0,0.1,0c0.04,0,0.08,0,0.12-0.01
						c0.03,0,0.07,0,0.1-0.01c0.05,0,0.1-0.01,0.14-0.01c0.05,0,0.11-0.01,0.16-0.02c0.03,0,0.07-0.01,0.1-0.01
						c0.04,0,0.08-0.01,0.12-0.02c0.03,0,0.05-0.01,0.08-0.01c0.04-0.01,0.09-0.01,0.13-0.02c0.02,0,0.04-0.01,0.06-0.01
						c1.45-0.23,2.82-0.8,4.03-1.67c0.17-0.12,0.21-0.35,0.09-0.52C15.08,16.62,14.84,16.58,14.68,16.7z"/>
					<path class="st0" d="M3.06,3.43c0.1,0,0.2-0.04,0.28-0.12c0.14-0.15,0.13-0.39-0.03-0.53C3.16,2.65,2.92,2.66,2.78,2.81l0,0
						C2.65,2.96,2.66,3.2,2.81,3.34C2.88,3.4,2.97,3.43,3.06,3.43z"/>
					<path class="st0" d="M15.77,15.77L15.77,15.77c-0.15,0.15-0.15,0.38,0,0.53c0.07,0.07,0.17,0.11,0.26,0.11
						c0.1,0,0.19-0.04,0.26-0.11c0,0,0,0,0,0c0,0,0,0,0,0c0.14-0.15,0.14-0.38,0-0.53C16.15,15.63,15.92,15.63,15.77,15.77z"/>
				</g>
			</g>
		</g>
	</g>
	<g>
		<g>
			<g>
				<g>
					<path class="st0" d="M9.6,4.2c-2.15,0-3.9,1.75-3.9,3.9c0,0.73,0.2,1.44,0.58,2.05l3.1,4.99c0.06,0.1,0.16,0.15,0.28,0.15
						c0,0,0,0,0,0c0.11,0,0.22-0.06,0.28-0.16l3.02-5.04c0.36-0.6,0.55-1.29,0.55-2C13.51,5.95,11.76,4.2,9.6,4.2z M12.4,9.77
						l-2.75,4.59L6.84,9.81C6.52,9.3,6.35,8.71,6.35,8.1c0-1.79,1.46-3.26,3.26-3.26s3.26,1.46,3.26,3.26
						C12.86,8.69,12.7,9.27,12.4,9.77z"/>
				</g>
			</g>
			<g>
				<g>
					<path class="st0" d="M9.6,6.15c-1.08,0-1.95,0.88-1.95,1.95c0,1.07,0.86,1.95,1.95,1.95c1.1,0,1.95-0.89,1.95-1.95
						C11.56,7.02,10.68,6.15,9.6,6.15z M9.6,9.41C8.88,9.41,8.3,8.82,8.3,8.1c0-0.72,0.59-1.31,1.31-1.31s1.3,0.59,1.3,1.31
						C10.91,8.81,10.34,9.41,9.6,9.41z"/>
				</g>
			</g>
		</g>
	</g>
</g>
</svg>
