<?xml version="1.0" encoding="utf-8"?>
<!-- Generator: Adobe Illustrator 25.2.3, SVG Export Plug-In . SVG Version: 6.00 Build 0)  -->
<svg version="1.1" id="Layer_1" xmlns="http://www.w3.org/2000/svg" xmlns:xlink="http://www.w3.org/1999/xlink" x="0px" y="0px"
	 viewBox="0 0 50 50" style="enable-background:new 0 0 50 50;" xml:space="preserve">
<style type="text/css">
	.st0{fill:#606060;}
</style>
<g>
	<path class="st0" d="M39.29,12.12H12.42c-2.03,0-3.68,1.65-3.68,3.68v17.64c0,2.03,1.65,3.68,3.68,3.68h8.65
		c0.11,0,0.21,0.05,0.27,0.14l3.16,4.28c0.32,0.43,0.8,0.68,1.34,0.68h0.01c0.53,0,1.02-0.24,1.34-0.67l3.23-4.3
		c0.06-0.08,0.16-0.13,0.27-0.13h8.61c2.03,0,3.68-1.65,3.68-3.68V15.79C42.96,13.77,41.32,12.12,39.29,12.12L39.29,12.12z
		 M40.96,33.44c0,0.16-0.02,0.31-0.06,0.46l-10.3-9.03l10.36-8.6V33.44z M39.29,14.12c0.31,0,0.59,0.08,0.84,0.23l-13.2,10.96
		c-0.62,0.51-1.52,0.51-2.13,0l-13.2-10.96c0.25-0.14,0.53-0.22,0.84-0.22L39.29,14.12z M10.82,33.89c-0.04-0.14-0.06-0.3-0.06-0.46
		V16.26l10.36,8.6L10.82,33.89z M28.81,36.04l-2.96,3.94l-2.89-3.92c-0.44-0.6-1.14-0.95-1.88-0.95h-8.61l10.21-8.95l0.83,0.69
		c0.68,0.56,1.51,0.85,2.35,0.85c0.83,0,1.67-0.28,2.35-0.85l0.83-0.69l10.21,8.95h-8.56C29.95,35.11,29.25,35.46,28.81,36.04
		L28.81,36.04z"/>
	<g>
		<path class="st0" d="M21.38,49.74c-0.06-0.01-0.12-0.02-0.18-0.03C21.26,49.72,21.32,49.73,21.38,49.74z"/>
		<path class="st0" d="M23.88,49.97c-0.06,0-0.12,0-0.18-0.01C23.77,49.97,23.82,49.97,23.88,49.97z"/>
		<path class="st0" d="M24.47,49.99c-0.07,0-0.14,0-0.21-0.01C24.33,49.99,24.4,49.99,24.47,49.99z"/>
		<path class="st0" d="M25.8,49.99c-0.08,0-0.17,0.01-0.25,0.01C25.63,49.99,25.71,49.99,25.8,49.99z"/>
		<path class="st0" d="M23.19,49.94c-0.06,0-0.12-0.01-0.17-0.01C23.07,49.93,23.13,49.93,23.19,49.94z"/>
		<path class="st0" d="M22.63,49.89c-0.06-0.01-0.12-0.01-0.18-0.02C22.51,49.88,22.57,49.88,22.63,49.89z"/>
		<path class="st0" d="M20.79,49.65c-0.04-0.01-0.08-0.01-0.13-0.02C20.7,49.63,20.74,49.64,20.79,49.65z"/>
		<path class="st0" d="M28.3,49.78c-0.11,0.01-0.21,0.03-0.32,0.04C28.09,49.81,28.19,49.8,28.3,49.78z"/>
		<path class="st0" d="M26.37,49.96c-0.09,0-0.17,0.01-0.26,0.01C26.2,49.97,26.28,49.97,26.37,49.96z"/>
		<path class="st0" d="M28.85,49.71c-0.11,0.02-0.23,0.03-0.34,0.05C28.63,49.74,28.74,49.72,28.85,49.71z"/>
		<path class="st0" d="M26.94,49.93c-0.09,0.01-0.17,0.01-0.26,0.02C26.76,49.94,26.85,49.93,26.94,49.93z"/>
		<path class="st0" d="M27.73,49.85c-0.14,0.01-0.28,0.03-0.42,0.04C27.45,49.88,27.59,49.87,27.73,49.85z"/>
		<path class="st0" d="M18.47,49.14c-0.1-0.03-0.21-0.06-0.31-0.09C18.26,49.08,18.36,49.11,18.47,49.14z"/>
		<path class="st0" d="M19.63,49.42c-0.07-0.02-0.14-0.03-0.22-0.05C19.48,49.39,19.56,49.41,19.63,49.42z"/>
		<path class="st0" d="M18.97,49.27c-0.1-0.02-0.19-0.05-0.29-0.07C18.78,49.22,18.88,49.25,18.97,49.27z"/>
		<path class="st0" d="M20.16,49.53c-0.07-0.01-0.13-0.03-0.2-0.04C20.02,49.51,20.09,49.52,20.16,49.53z"/>
		<path class="st0" d="M21.92,49.81c-0.03,0-0.07-0.01-0.1-0.01C21.85,49.8,21.89,49.81,21.92,49.81z"/>
		<path class="st0" d="M24.9,50c0.03,0,0.07,0,0.1,0c0.05,0,0.1,0,0.15,0c-0.05,0-0.1,0-0.15,0C24.97,50,24.93,50,24.9,50z"/>
		<path class="st0" d="M18.68,49.2c-0.07-0.02-0.15-0.04-0.22-0.06C18.54,49.16,18.61,49.18,18.68,49.2z"/>
		<path class="st0" d="M29.01,49.68c-0.05,0.01-0.1,0.02-0.15,0.02C28.91,49.7,28.96,49.69,29.01,49.68z"/>
		<path class="st0" d="M25.55,49.99c-0.13,0-0.27,0-0.4,0C25.28,50,25.41,50,25.55,49.99z"/>
		<path class="st0" d="M19.41,49.38c-0.15-0.03-0.29-0.07-0.44-0.1C19.12,49.31,19.26,49.34,19.41,49.38z"/>
		<path class="st0" d="M24.9,50c-0.14,0-0.28,0-0.43-0.01C24.61,50,24.75,50,24.9,50z"/>
		<path class="st0" d="M24.26,49.99c-0.12,0-0.25-0.01-0.37-0.01C24.01,49.98,24.13,49.98,24.26,49.99z"/>
		<path class="st0" d="M18.15,49.05c-0.04-0.01-0.08-0.02-0.12-0.04C18.07,49.03,18.11,49.04,18.15,49.05z"/>
		<path class="st0" d="M28.51,49.75c-0.07,0.01-0.14,0.02-0.21,0.03C28.37,49.77,28.44,49.76,28.51,49.75z"/>
		<path class="st0" d="M23.71,49.97c-0.17-0.01-0.34-0.02-0.52-0.03C23.36,49.95,23.53,49.96,23.71,49.97z"/>
		<path class="st0" d="M26.68,49.94c-0.1,0.01-0.2,0.01-0.31,0.02C26.47,49.96,26.58,49.95,26.68,49.94z"/>
		<path class="st0" d="M22.45,49.87c-0.18-0.02-0.35-0.04-0.52-0.06C22.1,49.83,22.27,49.85,22.45,49.87z"/>
		<path class="st0" d="M20.66,49.63c-0.17-0.03-0.34-0.06-0.5-0.09C20.32,49.57,20.49,49.6,20.66,49.63z"/>
		<path class="st0" d="M27.98,49.82c-0.09,0.01-0.17,0.02-0.26,0.03C27.81,49.84,27.9,49.83,27.98,49.82z"/>
		<path class="st0" d="M21.2,49.71c-0.14-0.02-0.28-0.04-0.42-0.07C20.93,49.67,21.06,49.69,21.2,49.71z"/>
		<path class="st0" d="M21.82,49.8c-0.15-0.02-0.29-0.04-0.44-0.06C21.53,49.76,21.67,49.78,21.82,49.8z"/>
		<path class="st0" d="M19.96,49.49c-0.11-0.02-0.22-0.05-0.33-0.07C19.74,49.45,19.85,49.47,19.96,49.49z"/>
		<path class="st0" d="M27.31,49.89c-0.12,0.01-0.25,0.02-0.37,0.03C27.06,49.92,27.19,49.91,27.31,49.89z"/>
		<path class="st0" d="M23.02,49.92c-0.13-0.01-0.26-0.02-0.39-0.03C22.76,49.9,22.89,49.91,23.02,49.92z"/>
		<path class="st0" d="M26.11,49.97c-0.1,0-0.21,0.01-0.31,0.01C25.9,49.98,26.01,49.98,26.11,49.97z"/>
		<g>
			<path class="st0" d="M50,24.88c-0.03-6.63-2.63-12.86-7.32-17.55c-2.01-2.01-4.3-3.63-6.79-4.84C32.54,0.86,28.83,0,25,0
				c0,0,0,0,0,0c-0.19,0-0.38,0-0.57,0.01c-0.06,0-0.12,0-0.18,0.01c-0.13,0-0.26,0.01-0.39,0.01c-0.07,0-0.13,0.01-0.2,0.01
				c-0.13,0.01-0.26,0.01-0.39,0.02c-0.06,0-0.12,0.01-0.18,0.01c-0.18,0.01-0.36,0.03-0.54,0.05c-0.06,0.01-0.12,0.01-0.17,0.02
				C22.24,0.15,22.12,0.16,22,0.18c-0.09,0.01-0.17,0.02-0.26,0.03c-0.09,0.01-0.19,0.03-0.28,0.04c-0.1,0.01-0.19,0.03-0.29,0.04
				c-0.08,0.01-0.16,0.02-0.23,0.04c-0.41,0.07-0.81,0.14-1.22,0.23c-0.02,0-0.04,0.01-0.06,0.01c-0.15,0.03-0.29,0.07-0.44,0.1
				c-0.01,0-0.02,0.01-0.04,0.01c-3.13,0.74-6.09,2.09-8.75,4C9.99,5,9.89,5.61,10.21,6.05c0.31,0.44,0.92,0.54,1.36,0.22
				c2.49-1.79,5.26-3.04,8.2-3.72c0.03-0.01,0.07-0.02,0.1-0.02c0.12-0.03,0.25-0.06,0.38-0.08c0.07-0.01,0.14-0.03,0.21-0.04
				c0.08-0.02,0.16-0.03,0.23-0.05c1.41-0.27,2.85-0.4,4.31-0.4c12.71,0,23.05,10.34,23.05,23.05c0,1.46-0.14,2.91-0.4,4.32
				c-0.01,0.07-0.03,0.15-0.04,0.22c-0.01,0.07-0.03,0.15-0.05,0.22c-0.03,0.12-0.05,0.24-0.08,0.36c-0.01,0.04-0.02,0.08-0.03,0.12
				c-0.68,2.93-1.93,5.7-3.72,8.19c-0.31,0.44-0.21,1.05,0.22,1.36c0.17,0.12,0.37,0.18,0.57,0.18c0.3,0,0.6-0.14,0.79-0.41
				c1.91-2.66,3.26-5.62,4.01-8.76c0-0.01,0-0.02,0.01-0.03c0.03-0.15,0.07-0.3,0.1-0.45c0-0.02,0.01-0.03,0.01-0.05
				c0.09-0.41,0.16-0.82,0.23-1.23c0.01-0.08,0.03-0.15,0.04-0.23c0.01-0.1,0.03-0.19,0.04-0.29c0.01-0.09,0.03-0.19,0.04-0.28
				c0.01-0.09,0.02-0.17,0.03-0.26c0.01-0.12,0.03-0.25,0.04-0.37c0.01-0.06,0.01-0.12,0.02-0.18c0.02-0.18,0.03-0.36,0.05-0.54
				c0-0.06,0.01-0.12,0.01-0.18c0.01-0.13,0.02-0.26,0.02-0.39c0-0.07,0.01-0.13,0.01-0.2c0.01-0.13,0.01-0.26,0.01-0.39
				c0-0.06,0-0.12,0.01-0.18C50,25.38,50,25.19,50,25v0C50,24.96,50,24.92,50,24.88z"/>
			<path class="st0" d="M38.43,43.73c-2.49,1.79-5.26,3.04-8.2,3.72c-0.03,0.01-0.07,0.02-0.1,0.02c-0.13,0.03-0.25,0.06-0.38,0.08
				c-0.07,0.01-0.14,0.03-0.21,0.04c-0.08,0.02-0.16,0.03-0.24,0.05c-1.4,0.26-2.83,0.41-4.31,0.41c-1.68,0-3.33-0.18-4.91-0.53
				c-0.06-0.01-0.12-0.03-0.18-0.04c-0.06-0.01-0.13-0.03-0.19-0.04c-0.15-0.03-0.29-0.07-0.44-0.11c-0.02,0-0.04-0.01-0.06-0.01
				c-2.76-0.72-5.33-1.93-7.59-3.55c-0.65-0.46-1.27-0.96-1.87-1.49c-0.72-0.64-1.41-1.32-2.05-2.05c-0.53-0.6-1.02-1.22-1.49-1.87
				c-1.62-2.26-2.83-4.83-3.55-7.59c0-0.01-0.01-0.03-0.01-0.04c-0.04-0.15-0.07-0.3-0.11-0.45c-0.01-0.06-0.03-0.13-0.04-0.19
				c-0.01-0.06-0.03-0.12-0.04-0.18C2.13,28.33,1.95,26.68,1.95,25c0-1.47,0.14-2.91,0.4-4.31c0.02-0.08,0.03-0.16,0.05-0.24
				c0.01-0.07,0.03-0.14,0.04-0.21c0.03-0.13,0.05-0.25,0.08-0.38c0.01-0.03,0.01-0.06,0.02-0.1c0.68-2.93,1.93-5.71,3.72-8.2
				c0.31-0.44,0.21-1.05-0.22-1.36C5.61,9.89,5,9.99,4.68,10.43c-1.91,2.66-3.26,5.62-4,8.75c0,0.02-0.01,0.03-0.01,0.05
				c-0.03,0.14-0.07,0.29-0.1,0.43c-0.01,0.02-0.01,0.05-0.02,0.07c-0.09,0.4-0.16,0.8-0.23,1.2c-0.01,0.08-0.03,0.16-0.04,0.24
				c-0.01,0.09-0.03,0.19-0.04,0.28c-0.01,0.1-0.03,0.19-0.04,0.29c-0.01,0.08-0.02,0.17-0.03,0.25c-0.02,0.13-0.03,0.25-0.04,0.38
				c-0.01,0.06-0.01,0.11-0.02,0.17c-0.02,0.18-0.03,0.36-0.05,0.54c0,0.06-0.01,0.12-0.01,0.18c-0.01,0.13-0.02,0.26-0.02,0.39
				c0,0.07-0.01,0.13-0.01,0.2c-0.01,0.13-0.01,0.26-0.01,0.39c0,0.06,0,0.12-0.01,0.18C0,24.62,0,24.81,0,25c0,0,0,0,0,0v0
				c0,0.19,0,0.37,0.01,0.56c0,0.05,0,0.1,0,0.15c0,0.16,0.01,0.31,0.02,0.47c0,0.03,0,0.06,0,0.1c0.01,0.19,0.02,0.37,0.03,0.56
				c0,0.03,0.01,0.07,0.01,0.1c0.01,0.16,0.03,0.32,0.04,0.48c0,0.04,0.01,0.07,0.01,0.11c0.02,0.19,0.04,0.38,0.06,0.57
				c0,0,0,0.01,0,0.01c0.02,0.18,0.05,0.36,0.07,0.55c0.01,0.04,0.01,0.08,0.02,0.12c0.03,0.17,0.05,0.35,0.08,0.52
				c0,0.01,0,0.02,0.01,0.04c0.03,0.18,0.07,0.37,0.1,0.55C0.48,29.91,0.49,29.95,0.5,30c0.03,0.14,0.06,0.28,0.09,0.42
				c0.01,0.05,0.02,0.1,0.03,0.15c0.04,0.17,0.08,0.33,0.12,0.5c0.02,0.06,0.03,0.12,0.05,0.18c0.03,0.11,0.06,0.21,0.08,0.32
				c0.02,0.08,0.05,0.17,0.07,0.25C0.96,31.9,0.98,31.97,1,32.05c0.06,0.2,0.12,0.41,0.19,0.61c0.01,0.02,0.01,0.04,0.02,0.06
				c0.04,0.13,0.08,0.26,0.13,0.39c0,0.01,0.01,0.02,0.01,0.03c0.61,1.77,1.41,3.46,2.4,5.05c0.44,0.71,0.92,1.4,1.43,2.06
				c0.65,0.85,1.37,1.66,2.14,2.43c0.77,0.77,1.58,1.48,2.43,2.14c0.67,0.51,1.35,0.99,2.06,1.43c1.94,1.21,4.03,2.14,6.22,2.77
				c0.04,0.01,0.08,0.02,0.12,0.04c0.1,0.03,0.21,0.06,0.31,0.09c0.07,0.02,0.14,0.04,0.22,0.06c0.1,0.03,0.19,0.05,0.29,0.07
				c0.15,0.04,0.29,0.07,0.44,0.1c0.07,0.02,0.14,0.03,0.22,0.05c0.11,0.02,0.22,0.05,0.33,0.07c0.07,0.01,0.13,0.03,0.2,0.04
				c0.17,0.03,0.33,0.06,0.5,0.09c0.04,0.01,0.08,0.01,0.13,0.02c0.14,0.02,0.28,0.05,0.42,0.07c0.06,0.01,0.12,0.02,0.18,0.03
				c0.15,0.02,0.29,0.04,0.44,0.06c0.03,0,0.07,0.01,0.1,0.01c0.17,0.02,0.35,0.04,0.52,0.06c0.06,0.01,0.12,0.01,0.18,0.02
				c0.13,0.01,0.26,0.02,0.39,0.03c0.06,0,0.12,0.01,0.17,0.01c0.17,0.01,0.34,0.02,0.52,0.03c0.06,0,0.12,0.01,0.18,0.01
				c0.12,0.01,0.25,0.01,0.37,0.01c0.07,0,0.14,0,0.21,0.01c0.14,0,0.28,0,0.43,0.01c0.03,0,0.07,0,0.1,0c0.05,0,0.1,0,0.15,0
				c0.13,0,0.27,0,0.4,0c0.08,0,0.17,0,0.25-0.01c0.1,0,0.21-0.01,0.31-0.01c0.09,0,0.17-0.01,0.26-0.01
				c0.1-0.01,0.2-0.01,0.31-0.02c0.09-0.01,0.17-0.01,0.26-0.02c0.13-0.01,0.25-0.02,0.37-0.03c0.14-0.01,0.28-0.03,0.42-0.04
				c0.09-0.01,0.17-0.02,0.26-0.03c0.11-0.01,0.21-0.03,0.32-0.04c0.07-0.01,0.14-0.02,0.21-0.03c0.11-0.02,0.23-0.03,0.34-0.05
				c0.05-0.01,0.1-0.02,0.15-0.02c3.8-0.61,7.39-2.09,10.56-4.36c0.44-0.31,0.54-0.92,0.22-1.36
				C39.48,43.52,38.87,43.42,38.43,43.73z"/>
			<path class="st0" d="M8.01,8.99c0.27,0,0.53-0.11,0.72-0.32c0.36-0.4,0.33-1.02-0.07-1.38c-0.4-0.36-1.02-0.33-1.38,0.07l0,0
				c-0.36,0.4-0.33,1.02,0.07,1.38C7.54,8.91,7.78,8.99,8.01,8.99z"/>
			<path class="st0" d="M41.3,41.3L41.3,41.3c-0.38,0.38-0.38,1,0,1.38c0.19,0.19,0.44,0.29,0.69,0.29c0.25,0,0.5-0.09,0.69-0.28
				c0,0,0,0,0,0c0,0,0,0,0,0c0.38-0.38,0.38-1,0-1.38C42.3,40.91,41.68,40.91,41.3,41.3z"/>
		</g>
	</g>
</g>
</svg>
