<?xml version="1.0" encoding="utf-8"?>
<!-- Generator: Adobe Illustrator 25.2.3, SVG Export Plug-In . SVG Version: 6.00 Build 0)  -->
<svg version="1.1" id="Layer_1" xmlns="http://www.w3.org/2000/svg" xmlns:xlink="http://www.w3.org/1999/xlink" x="0px" y="0px"
	 viewBox="0 0 26 26" style="enable-background:new 0 0 26 26;" xml:space="preserve">
<style type="text/css">
	.st0{fill:#FFFFFF;}
</style>
<g>
	<g>
		<g>
			<rect x="5.69" y="10.54" class="st0" width="3.22" height="9.68"/>
			<path class="st0" d="M7.29,9.22H7.27c-1.08,0-1.78-0.74-1.78-1.67c0-0.95,0.72-1.67,1.82-1.67s1.78,0.72,1.8,1.67
				C9.11,8.48,8.42,9.22,7.29,9.22z"/>
			<path class="st0" d="M20.5,20.22h-3.22v-5.18c0-1.3-0.47-2.19-1.63-2.19c-0.89,0-1.42,0.6-1.65,1.18
				c-0.09,0.21-0.11,0.5-0.11,0.79v5.41h-3.22c0,0,0.04-8.77,0-9.68h3.22v1.37c0.43-0.66,1.19-1.6,2.9-1.6c2.12,0,3.7,1.38,3.7,4.36
				V20.22z"/>
		</g>
		<g>
			<path class="st0" d="M11.12,25.91c-0.03,0-0.06-0.01-0.09-0.01C11.06,25.91,11.09,25.91,11.12,25.91z"/>
			<path class="st0" d="M12.42,26.04c-0.03,0-0.06,0-0.09,0C12.36,26.03,12.39,26.03,12.42,26.04z"/>
			<path class="st0" d="M12.72,26.05c-0.04,0-0.07,0-0.11,0C12.65,26.04,12.69,26.04,12.72,26.05z"/>
			<path class="st0" d="M13.41,26.04c-0.04,0-0.09,0-0.13,0C13.33,26.04,13.37,26.04,13.41,26.04z"/>
			<path class="st0" d="M12.06,26.02c-0.03,0-0.06,0-0.09-0.01C12,26.01,12.03,26.01,12.06,26.02z"/>
			<path class="st0" d="M11.77,25.99c-0.03,0-0.06-0.01-0.09-0.01C11.7,25.99,11.73,25.99,11.77,25.99z"/>
			<path class="st0" d="M10.81,25.87c-0.02,0-0.04-0.01-0.07-0.01C10.76,25.86,10.79,25.86,10.81,25.87z"/>
			<path class="st0" d="M14.72,25.94c-0.05,0.01-0.11,0.01-0.16,0.02C14.61,25.95,14.66,25.94,14.72,25.94z"/>
			<path class="st0" d="M13.71,26.03c-0.05,0-0.09,0-0.14,0.01C13.62,26.03,13.67,26.03,13.71,26.03z"/>
			<path class="st0" d="M15,25.9c-0.06,0.01-0.12,0.02-0.18,0.03C14.89,25.91,14.95,25.9,15,25.9z"/>
			<path class="st0" d="M14.01,26.01c-0.04,0-0.09,0.01-0.13,0.01C13.92,26.02,13.96,26.01,14.01,26.01z"/>
			<path class="st0" d="M14.42,25.97c-0.07,0.01-0.14,0.02-0.22,0.02C14.27,25.99,14.35,25.98,14.42,25.97z"/>
			<path class="st0" d="M9.6,25.6c-0.05-0.01-0.11-0.03-0.16-0.04C9.49,25.57,9.55,25.59,9.6,25.6z"/>
			<path class="st0" d="M10.21,25.75c-0.04-0.01-0.08-0.02-0.11-0.02C10.13,25.73,10.17,25.74,10.21,25.75z"/>
			<path class="st0" d="M9.87,25.67c-0.05-0.01-0.1-0.03-0.15-0.04C9.77,25.64,9.82,25.66,9.87,25.67z"/>
			<path class="st0" d="M10.48,25.81c-0.03-0.01-0.07-0.01-0.1-0.02C10.41,25.79,10.45,25.8,10.48,25.81z"/>
			<path class="st0" d="M11.4,25.95c-0.02,0-0.04,0-0.05-0.01C11.36,25.95,11.38,25.95,11.4,25.95z"/>
			<path class="st0" d="M12.95,26.05c0.02,0,0.04,0,0.05,0c0.03,0,0.05,0,0.08,0c-0.03,0-0.05,0-0.08,0
				C12.98,26.05,12.96,26.05,12.95,26.05z"/>
			<path class="st0" d="M9.71,25.63c-0.04-0.01-0.08-0.02-0.11-0.03C9.64,25.61,9.68,25.62,9.71,25.63z"/>
			<path class="st0" d="M15.08,25.88c-0.03,0-0.05,0.01-0.08,0.01C15.03,25.89,15.06,25.89,15.08,25.88z"/>
			<path class="st0" d="M13.28,26.05c-0.07,0-0.14,0-0.21,0C13.15,26.05,13.21,26.05,13.28,26.05z"/>
			<path class="st0" d="M10.09,25.72c-0.08-0.02-0.15-0.04-0.23-0.05C9.94,25.69,10.02,25.71,10.09,25.72z"/>
			<path class="st0" d="M12.95,26.05c-0.07,0-0.15,0-0.22,0C12.8,26.05,12.87,26.05,12.95,26.05z"/>
			<path class="st0" d="M12.61,26.04c-0.06,0-0.13,0-0.19-0.01C12.48,26.04,12.55,26.04,12.61,26.04z"/>
			<path class="st0" d="M9.44,25.56c-0.02-0.01-0.04-0.01-0.06-0.02C9.4,25.54,9.42,25.55,9.44,25.56z"/>
			<path class="st0" d="M14.83,25.92c-0.04,0.01-0.07,0.01-0.11,0.02C14.75,25.93,14.79,25.93,14.83,25.92z"/>
			<path class="st0" d="M12.33,26.03c-0.09,0-0.18-0.01-0.27-0.02C12.15,26.02,12.24,26.03,12.33,26.03z"/>
			<path class="st0" d="M13.87,26.02c-0.05,0-0.11,0.01-0.16,0.01C13.77,26.03,13.82,26.02,13.87,26.02z"/>
			<path class="st0" d="M11.67,25.98c-0.09-0.01-0.18-0.02-0.27-0.03C11.49,25.96,11.58,25.97,11.67,25.98z"/>
			<path class="st0" d="M10.74,25.85c-0.09-0.02-0.17-0.03-0.26-0.05C10.57,25.82,10.66,25.84,10.74,25.85z"/>
			<path class="st0" d="M14.55,25.96c-0.04,0.01-0.09,0.01-0.13,0.01C14.46,25.97,14.51,25.96,14.55,25.96z"/>
			<path class="st0" d="M11.03,25.9c-0.07-0.01-0.14-0.02-0.22-0.03C10.88,25.88,10.95,25.89,11.03,25.9z"/>
			<path class="st0" d="M11.35,25.95c-0.08-0.01-0.15-0.02-0.23-0.03C11.19,25.93,11.27,25.94,11.35,25.95z"/>
			<path class="st0" d="M10.38,25.79c-0.06-0.01-0.11-0.02-0.17-0.04C10.26,25.76,10.32,25.77,10.38,25.79z"/>
			<path class="st0" d="M14.2,25.99c-0.06,0.01-0.13,0.01-0.19,0.02C14.07,26.01,14.14,26,14.2,25.99z"/>
			<path class="st0" d="M11.97,26.01C11.9,26,11.83,26,11.77,25.99C11.83,26,11.9,26,11.97,26.01z"/>
			<path class="st0" d="M13.58,26.04c-0.05,0-0.11,0-0.16,0.01C13.47,26.04,13.52,26.04,13.58,26.04z"/>
			<g>
				<path class="st0" d="M26,12.98c-0.02-3.45-1.37-6.69-3.81-9.13c-1.05-1.05-2.24-1.89-3.53-2.52C16.92,0.5,14.99,0.05,13,0.05
					c0,0,0,0,0,0c-0.1,0-0.2,0-0.29,0c-0.03,0-0.06,0-0.09,0c-0.07,0-0.14,0-0.2,0.01c-0.04,0-0.07,0-0.11,0.01
					c-0.07,0-0.13,0.01-0.2,0.01c-0.03,0-0.06,0-0.1,0.01c-0.09,0.01-0.19,0.02-0.28,0.02c-0.03,0-0.06,0.01-0.09,0.01
					c-0.06,0.01-0.13,0.01-0.19,0.02c-0.04,0.01-0.09,0.01-0.13,0.02c-0.05,0.01-0.1,0.01-0.15,0.02c-0.05,0.01-0.1,0.01-0.15,0.02
					c-0.04,0.01-0.08,0.01-0.12,0.02c-0.21,0.03-0.42,0.07-0.63,0.12c-0.01,0-0.02,0-0.03,0.01c-0.08,0.02-0.15,0.03-0.23,0.05
					c-0.01,0-0.01,0-0.02,0C8.35,0.79,6.81,1.49,5.42,2.48C5.2,2.65,5.14,2.97,5.31,3.19c0.16,0.23,0.48,0.28,0.71,0.12
					c1.29-0.93,2.74-1.58,4.26-1.93c0.02,0,0.04-0.01,0.05-0.01c0.06-0.01,0.13-0.03,0.2-0.04c0.04-0.01,0.07-0.02,0.11-0.02
					c0.04-0.01,0.08-0.02,0.12-0.02c0.73-0.14,1.48-0.21,2.24-0.21c6.61,0,11.98,5.38,11.98,11.98c0,0.76-0.07,1.51-0.21,2.25
					c-0.01,0.04-0.01,0.08-0.02,0.11c-0.01,0.04-0.02,0.08-0.02,0.12c-0.01,0.06-0.03,0.12-0.04,0.19c0,0.02-0.01,0.04-0.01,0.06
					c-0.35,1.52-1.01,2.97-1.93,4.26c-0.16,0.23-0.11,0.55,0.12,0.71c0.09,0.06,0.19,0.1,0.3,0.1c0.16,0,0.31-0.07,0.41-0.21
					c0.99-1.38,1.7-2.92,2.08-4.55c0-0.01,0-0.01,0-0.02c0.02-0.08,0.04-0.15,0.05-0.23c0-0.01,0-0.02,0.01-0.03
					c0.05-0.21,0.09-0.42,0.12-0.64c0.01-0.04,0.01-0.08,0.02-0.12c0.01-0.05,0.01-0.1,0.02-0.15c0.01-0.05,0.01-0.1,0.02-0.15
					c0.01-0.04,0.01-0.09,0.02-0.13c0.01-0.06,0.01-0.13,0.02-0.19c0-0.03,0.01-0.06,0.01-0.09c0.01-0.09,0.02-0.19,0.02-0.28
					c0-0.03,0-0.06,0.01-0.1c0-0.07,0.01-0.13,0.01-0.2c0-0.03,0-0.07,0.01-0.1c0-0.07,0.01-0.14,0.01-0.2c0-0.03,0-0.06,0-0.09
					c0-0.1,0-0.2,0-0.3v0C26,13.03,26,13.01,26,12.98z"/>
				<path class="st0" d="M19.98,22.79c-1.29,0.93-2.74,1.58-4.26,1.94c-0.02,0-0.03,0.01-0.05,0.01c-0.07,0.01-0.13,0.03-0.2,0.04
					c-0.04,0.01-0.07,0.02-0.11,0.02c-0.04,0.01-0.08,0.02-0.12,0.02c-0.73,0.14-1.47,0.21-2.24,0.21c-0.88,0-1.73-0.1-2.55-0.27
					c-0.03-0.01-0.06-0.01-0.09-0.02c-0.03-0.01-0.07-0.02-0.1-0.02c-0.08-0.02-0.15-0.04-0.23-0.06c-0.01,0-0.02,0-0.03-0.01
					c-1.44-0.37-2.77-1.01-3.95-1.84c-0.34-0.24-0.66-0.5-0.97-0.77c-0.38-0.33-0.73-0.69-1.06-1.06C3.74,20.66,3.48,20.34,3.24,20
					c-0.84-1.18-1.47-2.51-1.85-3.95c0-0.01,0-0.01-0.01-0.02c-0.02-0.08-0.04-0.16-0.06-0.23c-0.01-0.03-0.02-0.07-0.02-0.1
					c-0.01-0.03-0.01-0.06-0.02-0.09c-0.18-0.82-0.27-1.68-0.27-2.55c0-0.76,0.07-1.51,0.21-2.24c0.01-0.04,0.02-0.08,0.02-0.13
					c0.01-0.04,0.01-0.07,0.02-0.11c0.01-0.07,0.03-0.13,0.04-0.2c0-0.02,0.01-0.03,0.01-0.05C1.68,8.8,2.33,7.36,3.26,6.07
					c0.16-0.23,0.11-0.54-0.12-0.71C2.92,5.19,2.6,5.25,2.44,5.47c-0.99,1.38-1.69,2.92-2.08,4.55c0,0.01,0,0.02-0.01,0.02
					c-0.02,0.07-0.03,0.15-0.05,0.22c0,0.01-0.01,0.02-0.01,0.04c-0.04,0.21-0.08,0.42-0.12,0.63c-0.01,0.04-0.01,0.08-0.02,0.13
					c-0.01,0.05-0.01,0.1-0.02,0.15c-0.01,0.05-0.01,0.1-0.02,0.15C0.1,11.4,0.1,11.44,0.09,11.49c-0.01,0.07-0.01,0.13-0.02,0.2
					c0,0.03-0.01,0.06-0.01,0.09c-0.01,0.09-0.02,0.19-0.02,0.28c0,0.03,0,0.06-0.01,0.09c0,0.07-0.01,0.14-0.01,0.2
					c0,0.03,0,0.07-0.01,0.1c0,0.07-0.01,0.14-0.01,0.2c0,0.03,0,0.06,0,0.09c0,0.1,0,0.2,0,0.3c0,0,0,0,0,0v0c0,0.1,0,0.19,0,0.29
					c0,0.03,0,0.05,0,0.08c0,0.08,0.01,0.16,0.01,0.24c0,0.02,0,0.03,0,0.05c0,0.1,0.01,0.19,0.02,0.29c0,0.02,0,0.04,0,0.05
					c0.01,0.08,0.01,0.17,0.02,0.25c0,0.02,0,0.04,0.01,0.06c0.01,0.1,0.02,0.2,0.03,0.3c0,0,0,0,0,0c0.01,0.09,0.02,0.19,0.04,0.28
					c0,0.02,0.01,0.04,0.01,0.06c0.01,0.09,0.03,0.18,0.04,0.27c0,0.01,0,0.01,0,0.02c0.02,0.1,0.03,0.19,0.05,0.28
					c0,0.02,0.01,0.05,0.01,0.07c0.01,0.07,0.03,0.15,0.05,0.22c0.01,0.03,0.01,0.05,0.02,0.08c0.02,0.09,0.04,0.17,0.06,0.26
					c0.01,0.03,0.02,0.06,0.02,0.09c0.01,0.06,0.03,0.11,0.04,0.17c0.01,0.04,0.02,0.09,0.04,0.13c0.01,0.04,0.02,0.08,0.03,0.12
					c0.03,0.11,0.06,0.21,0.1,0.32c0,0.01,0.01,0.02,0.01,0.03c0.02,0.07,0.04,0.13,0.07,0.2c0,0.01,0,0.01,0.01,0.02
					c0.32,0.92,0.73,1.8,1.25,2.63c0.23,0.37,0.48,0.73,0.75,1.07c0.34,0.44,0.71,0.86,1.11,1.26c0.4,0.4,0.82,0.77,1.26,1.11
					c0.35,0.27,0.7,0.52,1.07,0.75c1.01,0.63,2.1,1.11,3.23,1.44c0.02,0.01,0.04,0.01,0.06,0.02c0.05,0.02,0.11,0.03,0.16,0.04
					c0.04,0.01,0.08,0.02,0.11,0.03c0.05,0.01,0.1,0.03,0.15,0.04c0.08,0.02,0.15,0.04,0.23,0.05c0.04,0.01,0.08,0.02,0.11,0.02
					c0.06,0.01,0.11,0.02,0.17,0.04c0.03,0.01,0.07,0.01,0.1,0.02c0.09,0.02,0.17,0.03,0.26,0.05c0.02,0,0.04,0.01,0.07,0.01
					c0.07,0.01,0.14,0.02,0.22,0.03c0.03,0,0.06,0.01,0.09,0.01c0.08,0.01,0.15,0.02,0.23,0.03c0.02,0,0.04,0,0.05,0.01
					c0.09,0.01,0.18,0.02,0.27,0.03c0.03,0,0.06,0.01,0.09,0.01c0.07,0.01,0.13,0.01,0.2,0.02c0.03,0,0.06,0,0.09,0.01
					c0.09,0.01,0.18,0.01,0.27,0.02c0.03,0,0.06,0,0.09,0c0.06,0,0.13,0.01,0.19,0.01c0.04,0,0.07,0,0.11,0c0.07,0,0.15,0,0.22,0
					c0.02,0,0.04,0,0.05,0c0.03,0,0.05,0,0.08,0c0.07,0,0.14,0,0.21,0c0.04,0,0.09,0,0.13,0c0.05,0,0.11,0,0.16-0.01
					c0.05,0,0.09,0,0.14-0.01c0.05,0,0.11-0.01,0.16-0.01c0.04,0,0.09-0.01,0.13-0.01c0.07,0,0.13-0.01,0.19-0.02
					c0.07-0.01,0.14-0.01,0.22-0.02c0.04,0,0.09-0.01,0.13-0.01c0.05-0.01,0.11-0.01,0.16-0.02c0.04,0,0.07-0.01,0.11-0.02
					c0.06-0.01,0.12-0.02,0.18-0.03c0.03,0,0.05-0.01,0.08-0.01c1.98-0.32,3.84-1.09,5.49-2.27c0.23-0.16,0.28-0.48,0.12-0.71
					C20.53,22.68,20.21,22.63,19.98,22.79z"/>
				<path class="st0" d="M4.17,4.72c0.14,0,0.28-0.06,0.38-0.17c0.19-0.21,0.17-0.53-0.03-0.72C4.3,3.65,3.98,3.67,3.79,3.87l0,0
					C3.6,4.08,3.62,4.4,3.83,4.59C3.92,4.68,4.04,4.72,4.17,4.72z"/>
				<path class="st0" d="M21.47,21.52L21.47,21.52c-0.2,0.2-0.2,0.52,0,0.72c0.1,0.1,0.23,0.15,0.36,0.15
					c0.13,0,0.26-0.05,0.36-0.15c0,0,0,0,0,0c0,0,0,0,0,0c0.2-0.2,0.2-0.52,0-0.72C21.99,21.32,21.67,21.32,21.47,21.52z"/>
			</g>
		</g>
	</g>
</g>
</svg>
