<?xml version="1.0" encoding="utf-8"?>
<!-- Generator: Adobe Illustrator 25.2.3, SVG Export Plug-In . SVG Version: 6.00 Build 0)  -->
<svg version="1.1" id="Layer_1" xmlns="http://www.w3.org/2000/svg" xmlns:xlink="http://www.w3.org/1999/xlink" x="0px" y="0px"
	 viewBox="0 0 122.45 48.07" style="enable-background:new 0 0 122.45 48.07;" xml:space="preserve">
<style type="text/css">
	.st0{fill:#B6B6BC;}
	.st1{fill:#ACBA00;}
	.st2{fill:#7E7D80;}
</style>
<g>
	<g>
		<g>
			<g>
				<path class="st0" d="M88.96,47.6c-0.29,0.31-0.67,0.47-1.09,0.47c-0.4,0-0.76-0.15-1.04-0.42c-0.38-0.38-0.38-0.78-0.38-1.65
					c0-0.86,0-1.26,0.38-1.65c0.27-0.27,0.63-0.42,1.04-0.42c0.78,0,1.3,0.5,1.42,1.22h-0.43c-0.11-0.51-0.48-0.83-0.99-0.83
					c-0.27,0-0.52,0.11-0.7,0.29c-0.26,0.26-0.29,0.54-0.29,1.39c0,0.85,0.03,1.13,0.29,1.39c0.18,0.18,0.43,0.29,0.7,0.29
					c0.3,0,0.58-0.12,0.77-0.35c0.17-0.2,0.23-0.42,0.23-0.74v-0.31h-1V45.9h1.43v0.65C89.31,47.02,89.21,47.33,88.96,47.6z"/>
				<path class="st0" d="M92.66,48.03l-0.93-1.81h-0.98v1.81h-0.43v-4.07h1.56c0.71,0,1.21,0.43,1.21,1.13
					c0,0.59-0.36,0.98-0.89,1.09l0.97,1.85H92.66z M91.85,44.36h-1.09v1.49h1.09c0.47,0,0.81-0.25,0.81-0.74
					C92.66,44.61,92.32,44.36,91.85,44.36z"/>
				<path class="st0" d="M95.44,48.07c-0.82,0-1.42-0.57-1.42-1.38v-2.72h0.43v2.69c0,0.62,0.39,1.02,0.98,1.02
					c0.59,0,0.99-0.41,0.99-1.02v-2.69h0.43v2.72C96.86,47.5,96.26,48.07,95.44,48.07z"/>
				<path class="st0" d="M99.5,46.36h-1.08v1.67h-0.43v-4.07h1.51c0.74,0,1.26,0.46,1.26,1.19C100.75,45.89,100.24,46.36,99.5,46.36
					z M99.46,44.36h-1.04v1.62h1.04c0.51,0,0.86-0.27,0.86-0.81C100.32,44.62,99.96,44.36,99.46,44.36z"/>
				<path class="st0" d="M103.89,47.65c-0.27,0.27-0.63,0.42-1.04,0.42c-0.41,0-0.76-0.15-1.04-0.42c-0.38-0.38-0.38-0.78-0.38-1.65
					c0-0.86,0-1.26,0.38-1.65c0.27-0.27,0.63-0.42,1.04-0.42c0.41,0,0.77,0.15,1.04,0.42c0.38,0.38,0.38,0.78,0.38,1.65
					C104.27,46.86,104.27,47.26,103.89,47.65z M103.56,44.61c-0.18-0.18-0.43-0.29-0.7-0.29c-0.27,0-0.52,0.11-0.7,0.29
					c-0.26,0.26-0.29,0.54-0.29,1.39c0,0.85,0.03,1.12,0.29,1.39c0.18,0.18,0.43,0.29,0.7,0.29c0.27,0,0.53-0.11,0.7-0.29
					c0.26-0.26,0.29-0.54,0.29-1.39C103.84,45.15,103.81,44.87,103.56,44.61z"/>
				<path class="st0" d="M106.72,48.03v-4.07h0.43v4.07H106.72z"/>
				<path class="st0" d="M110.93,48.03l-2.16-3.26v3.26h-0.43v-4.07h0.41l2.16,3.25v-3.25h0.43v4.07H110.93z"/>
				<path class="st0" d="M113.72,44.36v3.68h-0.43v-3.68h-1.18v-0.39h2.79v0.39H113.72z"/>
				<path class="st0" d="M115.66,48.03v-4.07h2.52v0.39h-2.09v1.43h1.78v0.39h-1.78v1.47h2.09v0.39H115.66z"/>
				<path class="st0" d="M120.35,48.07c-0.4,0-0.76-0.15-1.04-0.42c-0.38-0.38-0.38-0.78-0.38-1.65c0-0.86,0-1.26,0.38-1.65
					c0.27-0.27,0.64-0.42,1.04-0.42c0.73,0,1.27,0.45,1.41,1.21h-0.45c-0.11-0.5-0.46-0.82-0.97-0.82c-0.27,0-0.52,0.1-0.7,0.29
					c-0.26,0.26-0.29,0.54-0.29,1.39c0,0.85,0.03,1.13,0.29,1.39c0.18,0.18,0.43,0.29,0.7,0.29c0.51,0,0.87-0.33,0.98-0.82h0.43
					C121.63,47.62,121.08,48.07,120.35,48.07z"/>
			</g>
		</g>
		<g>
			<polygon class="st1" points="74.29,27.7 74.29,30.21 86.87,29.81 			"/>
			<polygon class="st1" points="74.29,25.99 86.87,28.12 74.29,23.51 			"/>
			<polygon class="st1" points="74.29,22.34 86.87,26.38 74.29,19.89 			"/>
			<polygon class="st1" points="74.29,19.36 86.87,24.69 74.29,16.91 			"/>
			<polygon class="st1" points="74.29,16.3 86.87,22.98 74.29,13.72 			"/>
			<polygon class="st1" points="74.29,13.11 86.87,21.34 74.29,10.71 			"/>
			<polygon class="st1" points="74.29,9.92 86.87,19.52 74.29,7.1 			"/>
			<polygon class="st1" points="74.29,6.59 86.87,17.94 74.29,3.64 			"/>
		</g>
		<g>
			<polygon class="st1" points="99.83,27.7 99.83,30.21 112.41,29.81 			"/>
			<polygon class="st1" points="99.83,25.99 112.41,28.12 99.83,23.51 			"/>
			<polygon class="st1" points="99.83,22.34 112.41,26.38 99.83,19.89 			"/>
			<polygon class="st1" points="99.83,19.36 112.41,24.69 99.83,16.91 			"/>
			<polygon class="st1" points="99.83,16.3 112.41,22.98 99.83,13.72 			"/>
			<polygon class="st1" points="99.83,13.11 112.41,21.34 99.83,10.71 			"/>
			<polygon class="st1" points="99.83,9.92 112.41,19.52 99.83,7.1 			"/>
			<polygon class="st1" points="99.83,6.59 112.41,17.94 99.83,3.64 			"/>
		</g>
		<g>
			<g>
				<polygon class="st2" points="6.91,9.29 0,9.29 0,26.58 0,30.08 6.91,30.08 27.59,30.08 27.59,26.58 6.91,26.58 				"/>
				<polygon class="st2" points="51.95,26.58 38.01,26.58 38.01,9.29 31.1,9.29 31.1,26.58 31.1,30.08 38.01,30.08 51.95,30.08 
					58.7,30.08 58.86,30.08 58.86,9.29 51.95,9.29 				"/>
				<rect x="115.37" y="9.29" class="st2" width="6.91" height="20.79"/>
				<path class="st2" d="M118.73,7.42c2.05,0,3.71-1.66,3.71-3.71c0-2.05-1.66-3.71-3.71-3.71c-2.05,0-3.71,1.66-3.71,3.71
					C115.02,5.76,116.68,7.42,118.73,7.42z"/>
			</g>
			<g>
				<polygon class="st2" points="74.29,27.7 74.29,30.21 61.71,29.81 				"/>
				<polygon class="st2" points="74.29,25.99 61.71,28.12 74.29,23.51 				"/>
				<polygon class="st2" points="74.29,22.34 61.71,26.38 74.29,19.89 				"/>
				<polygon class="st2" points="74.29,19.36 61.71,24.69 74.29,16.91 				"/>
				<polygon class="st2" points="74.29,16.3 61.71,22.98 74.29,13.72 				"/>
				<polygon class="st2" points="74.29,13.11 61.71,21.34 74.29,10.71 				"/>
				<polygon class="st2" points="74.29,9.92 61.71,19.52 74.29,7.1 				"/>
				<polygon class="st2" points="74.29,6.59 61.71,17.94 74.29,3.64 				"/>
			</g>
			<g>
				<polygon class="st2" points="99.83,27.7 99.83,30.21 87.24,29.81 				"/>
				<polygon class="st2" points="99.83,25.99 87.24,28.12 99.83,23.51 				"/>
				<polygon class="st2" points="99.83,22.34 87.24,26.38 99.83,19.89 				"/>
				<polygon class="st2" points="99.83,19.36 87.24,24.69 99.83,16.91 				"/>
				<polygon class="st2" points="99.83,16.3 87.24,22.98 99.83,13.72 				"/>
				<polygon class="st2" points="99.83,13.11 87.24,21.34 99.83,10.71 				"/>
				<polygon class="st2" points="99.83,9.92 87.24,19.52 99.83,7.1 				"/>
				<polygon class="st2" points="99.83,6.59 87.24,17.94 99.83,3.64 				"/>
			</g>
			<g>
				<path class="st2" d="M7.3,38.26c-0.15,1.54-1.42,2.78-3.39,2.78c-2.23,0-3.65-1.4-3.65-3.6c0-1.56,0.97-3.6,3.65-3.6
					c1.5,0,3.12,0.68,3.33,2.49H6.53c-0.21-1.31-1.38-1.83-2.62-1.83c-1.7,0-2.88,0.95-2.88,2.95c0,1.53,0.8,2.95,2.88,2.95
					c1.63,0,2.44-0.83,2.68-2.13H7.3z"/>
				<path class="st2" d="M13.7,33.84c1.95,0,3.72,1.18,3.72,3.6s-1.78,3.6-3.72,3.6c-1.95,0-3.72-1.18-3.72-3.6
					S11.75,33.84,13.7,33.84z M13.7,40.39c1.51,0,2.96-0.88,2.96-2.95c0-2.06-1.45-2.95-2.96-2.95c-1.51,0-2.96,0.88-2.96,2.95
					C10.75,39.5,12.2,40.39,13.7,40.39z"/>
				<path class="st2" d="M20.35,34.01h0.85l4.79,5.86h0.02v-5.86h0.71v6.85H25.9l-4.82-5.86h-0.02v5.86h-0.71V34.01z"/>
				<path class="st2" d="M34.56,35.97c-0.1-1.17-1.05-1.48-2.15-1.48s-1.94,0.43-1.94,1.21c0,0.89,0.83,1.1,2.51,1.38
					c1.25,0.21,2.5,0.5,2.5,1.81c0,1.68-1.53,2.14-2.86,2.14c-1.74,0-3-0.59-3.11-2.44h0.71c0.12,1.44,1.08,1.78,2.4,1.78
					c1.03,0,2.09-0.28,2.09-1.36c0-1.05-1.25-1.17-2.5-1.37c-1.63-0.26-2.51-0.72-2.51-1.82c0-1.5,1.38-1.99,2.71-1.99
					c1.4,0,2.81,0.5,2.86,2.13H34.56z"/>
				<path class="st2" d="M40.28,34.67H37.6v-0.65h6.08v0.65h-2.69v6.2h-0.71V34.67z"/>
				<path class="st2" d="M46.33,34.01h3.73c1.16,0,2.23,0.41,2.23,1.85c0,0.73-0.45,1.46-1.34,1.66v0.02
					c0.97,0.15,1.17,0.78,1.22,1.9c0.02,0.43,0.08,1.27,0.24,1.42h-0.77c-0.12-0.14-0.17-0.65-0.18-1.4
					c-0.02-1.21-0.48-1.61-1.66-1.61h-2.75v3.01h-0.71V34.01z M47.05,37.2h3c0.78,0,1.48-0.29,1.48-1.33c0-1.01-0.76-1.2-1.41-1.2
					h-3.07V37.2z"/>
				<path class="st2" d="M61.42,38.22c0,1.25-0.35,2.82-3.06,2.82c-2.72,0-3.06-1.57-3.06-2.82v-4.2H56v4.2
					c0,1.8,1.16,2.17,2.35,2.17c1.19,0,2.35-0.37,2.35-2.17v-4.2h0.71V38.22z"/>
				<path class="st2" d="M71.44,38.26c-0.15,1.54-1.42,2.78-3.39,2.78c-2.23,0-3.65-1.4-3.65-3.6c0-1.56,0.97-3.6,3.65-3.6
					c1.5,0,3.12,0.68,3.33,2.49h-0.71c-0.21-1.31-1.38-1.83-2.62-1.83c-1.7,0-2.88,0.95-2.88,2.95c0,1.53,0.8,2.95,2.88,2.95
					c1.63,0,2.44-0.83,2.68-2.13H71.44z"/>
				<path class="st2" d="M81.19,38.26c-0.15,1.54-1.42,2.78-3.39,2.78c-2.23,0-3.65-1.4-3.65-3.6c0-1.56,0.97-3.6,3.65-3.6
					c1.5,0,3.12,0.68,3.33,2.49h-0.71c-0.21-1.31-1.38-1.83-2.62-1.83c-1.7,0-2.88,0.95-2.88,2.95c0,1.53,0.8,2.95,2.88,2.95
					c1.63,0,2.44-0.83,2.68-2.13H81.19z"/>
				<path class="st2" d="M84.21,34.01h0.71v6.85h-0.71V34.01z"/>
				<path class="st2" d="M91.65,33.84c1.95,0,3.72,1.18,3.72,3.6s-1.78,3.6-3.72,3.6c-1.95,0-3.72-1.18-3.72-3.6
					S89.7,33.84,91.65,33.84z M91.65,40.39c1.51,0,2.96-0.88,2.96-2.95c0-2.06-1.45-2.95-2.96-2.95c-1.51,0-2.96,0.88-2.96,2.95
					C88.7,39.5,90.14,40.39,91.65,40.39z"/>
				<path class="st2" d="M98.3,34.01h0.85l4.79,5.86h0.02v-5.86h0.71v6.85h-0.83l-4.82-5.86h-0.02v5.86H98.3V34.01z"/>
				<path class="st2" d="M107.97,34.01h5.45v0.65h-4.74v2.32h4.57v0.65h-4.57v2.57h4.82v0.65h-5.53V34.01z"/>
				<path class="st2" d="M121,35.97c-0.1-1.17-1.05-1.48-2.15-1.48s-1.94,0.43-1.94,1.21c0,0.89,0.83,1.1,2.51,1.38
					c1.25,0.21,2.5,0.5,2.5,1.81c0,1.68-1.53,2.14-2.86,2.14c-1.74,0-3-0.59-3.11-2.44h0.71c0.12,1.44,1.08,1.78,2.4,1.78
					c1.03,0,2.09-0.28,2.09-1.36c0-1.05-1.25-1.17-2.5-1.37c-1.63-0.26-2.51-0.72-2.51-1.82c0-1.5,1.38-1.99,2.71-1.99
					c1.4,0,2.81,0.5,2.86,2.13H121z"/>
			</g>
		</g>
	</g>
</g>
</svg>
