<?xml version="1.0" encoding="utf-8"?>
<!-- Generator: Adobe Illustrator 25.2.3, SVG Export Plug-In . SVG Version: 6.00 Build 0)  -->
<svg version="1.1" id="Layer_1" xmlns="http://www.w3.org/2000/svg" xmlns:xlink="http://www.w3.org/1999/xlink" x="0px" y="0px"
	 viewBox="0 0 123.45 27.83" style="enable-background:new 0 0 123.45 27.83;" xml:space="preserve">
<style type="text/css">
	.st0{fill:#B6B6BC;}
	.st1{fill:#B9CD4F;}
	.st2{fill:#7E7D80;}
</style>
<g>
	<g>
		<g>
			<path class="st0" d="M87.84,23.69c-0.31,0.33-0.72,0.51-1.18,0.51c-0.43,0-0.83-0.16-1.13-0.46c-0.41-0.41-0.41-0.85-0.41-1.78
				c0-0.93,0-1.37,0.41-1.78c0.3-0.3,0.69-0.46,1.13-0.46c0.84,0,1.41,0.54,1.54,1.32h-0.47c-0.12-0.56-0.52-0.9-1.07-0.9
				c-0.29,0-0.57,0.12-0.76,0.32c-0.28,0.28-0.31,0.58-0.31,1.5c0,0.92,0.03,1.22,0.31,1.51c0.19,0.2,0.47,0.31,0.76,0.31
				c0.32,0,0.63-0.13,0.83-0.38c0.18-0.22,0.25-0.46,0.25-0.8v-0.33h-1.08v-0.41h1.55v0.7C88.22,23.06,88.11,23.4,87.84,23.69z"/>
			<path class="st0" d="M91.84,24.16l-1-1.95h-1.06v1.95h-0.47v-4.4H91c0.77,0,1.31,0.46,1.31,1.23c0,0.64-0.39,1.06-0.96,1.18
				l1.05,2H91.84z M90.95,20.18h-1.18v1.61h1.18c0.51,0,0.88-0.27,0.88-0.8C91.83,20.45,91.47,20.18,90.95,20.18z"/>
			<path class="st0" d="M94.84,24.2c-0.89,0-1.53-0.61-1.53-1.49v-2.95h0.47v2.91c0,0.67,0.42,1.11,1.06,1.11s1.07-0.44,1.07-1.11
				v-2.91h0.47v2.95C96.38,23.59,95.73,24.2,94.84,24.2z"/>
			<path class="st0" d="M99.23,22.35h-1.17v1.81h-0.47v-4.4h1.64c0.8,0,1.36,0.5,1.36,1.29C100.59,21.84,100.03,22.35,99.23,22.35z
				 M99.18,20.18h-1.13v1.75h1.13c0.55,0,0.93-0.3,0.93-0.88C100.12,20.47,99.73,20.18,99.18,20.18z"/>
			<path class="st0" d="M103.98,23.74c-0.3,0.3-0.69,0.46-1.13,0.46c-0.44,0-0.83-0.16-1.13-0.46c-0.41-0.41-0.41-0.85-0.41-1.78
				c0-0.93,0-1.37,0.41-1.78c0.3-0.3,0.69-0.46,1.13-0.46c0.44,0,0.83,0.16,1.13,0.46c0.41,0.41,0.41,0.85,0.41,1.78
				C104.4,22.9,104.4,23.33,103.98,23.74z M103.62,20.46c-0.19-0.2-0.47-0.32-0.76-0.32c-0.29,0-0.57,0.12-0.76,0.32
				c-0.28,0.28-0.31,0.58-0.31,1.5c0,0.92,0.03,1.22,0.31,1.5c0.19,0.2,0.47,0.32,0.76,0.32c0.29,0,0.57-0.12,0.76-0.32
				c0.28-0.28,0.31-0.58,0.31-1.5C103.93,21.04,103.89,20.74,103.62,20.46z"/>
			<path class="st0" d="M107.04,24.16v-4.4h0.47v4.4H107.04z"/>
			<path class="st0" d="M111.59,24.16l-2.34-3.53v3.53h-0.47v-4.4h0.45l2.34,3.52v-3.52h0.47v4.4H111.59z"/>
			<path class="st0" d="M114.6,20.18v3.98h-0.47v-3.98h-1.27v-0.42h3.02v0.42H114.6z"/>
			<path class="st0" d="M116.7,24.16v-4.4h2.73v0.42h-2.26v1.55h1.93v0.42h-1.93v1.59h2.26v0.42H116.7z"/>
			<path class="st0" d="M121.78,24.2c-0.43,0-0.83-0.16-1.13-0.46c-0.41-0.41-0.41-0.85-0.41-1.78c0-0.93,0-1.37,0.41-1.78
				c0.3-0.3,0.69-0.46,1.13-0.46c0.79,0,1.38,0.48,1.53,1.31h-0.48c-0.12-0.54-0.49-0.89-1.05-0.89c-0.29,0-0.57,0.11-0.76,0.31
				c-0.28,0.28-0.31,0.59-0.31,1.51c0,0.92,0.03,1.22,0.31,1.51c0.19,0.2,0.47,0.31,0.76,0.31c0.55,0,0.94-0.35,1.06-0.89h0.47
				C123.17,23.72,122.57,24.2,121.78,24.2z"/>
		</g>
	</g>
	<g>
		<g>
			<path class="st1" d="M30.1,0.15h5.62v1.13h-4.14v5.83h3.38v1.07h-3.38v6.41h4.18v1.1H30.1V0.15z"/>
			<path class="st1" d="M38.3,14.6c-0.58-0.86-0.87-2.05-0.87-3.57V4.85c0-1.56,0.29-2.76,0.87-3.59C38.88,0.42,39.9,0,41.36,0
				c1.33,0,2.28,0.38,2.84,1.13c0.56,0.75,0.84,1.85,0.84,3.28v0.94h-1.38v-0.9c0-0.74-0.06-1.35-0.17-1.81
				c-0.12-0.47-0.34-0.83-0.67-1.08C42.48,1.3,42,1.17,41.38,1.17c-0.68,0-1.2,0.14-1.56,0.42c-0.36,0.28-0.6,0.67-0.73,1.16
				c-0.13,0.49-0.19,1.12-0.19,1.89v6.62c0,1.2,0.18,2.08,0.55,2.63c0.36,0.55,1.01,0.82,1.93,0.82c0.91,0,1.51-0.28,1.82-0.83
				c0.31-0.56,0.46-1.4,0.46-2.54v-1.02h1.38v0.92c0,1.49-0.27,2.63-0.82,3.43c-0.55,0.81-1.5,1.21-2.86,1.21
				C39.9,15.88,38.88,15.45,38.3,14.6z"/>
			<path class="st1" d="M47.91,14.63C47.3,13.8,47,12.63,47,11.11V4.66C47,3.15,47.31,2,47.92,1.2C48.53,0.4,49.56,0,51.01,0
				c1.42,0,2.43,0.4,3.05,1.21c0.62,0.81,0.92,1.96,0.92,3.45v6.46c0,1.52-0.3,2.7-0.9,3.52c-0.6,0.82-1.62,1.24-3.07,1.24
				C49.55,15.88,48.52,15.47,47.91,14.63z M52.96,13.88c0.36-0.56,0.54-1.37,0.54-2.45V4.39c0-1.07-0.17-1.88-0.53-2.42
				c-0.35-0.54-1.01-0.81-1.97-0.81c-0.97,0-1.64,0.27-1.99,0.8c-0.36,0.53-0.54,1.34-0.54,2.43v7.04c0,1.09,0.18,1.91,0.54,2.46
				c0.36,0.55,1.02,0.82,1.99,0.82C51.95,14.71,52.6,14.43,52.96,13.88z"/>
		</g>
		<g>
			<path class="st2" d="M59.83,0.15h1.53l3.3,15.54h-1.44l-0.77-4.16h-3.7l-0.79,4.16h-1.42L59.83,0.15z M62.27,10.47l-1.65-8.38
				l-1.65,8.38H62.27z"/>
			<path class="st2" d="M66.79,0.15h1.46l3.07,13.48l3.13-13.48h1.46l0.39,15.54h-1.21l-0.3-12.37L71.8,15.69h-0.94L67.92,3.34
				l-0.31,12.35h-1.21L66.79,0.15z"/>
			<path class="st2" d="M78.88,0.15h3.34c1.35,0,2.33,0.34,2.91,1.01c0.59,0.67,0.88,1.63,0.88,2.87c0,0.84-0.15,1.57-0.46,2.17
				c-0.31,0.6-0.81,0.97-1.52,1.11c0.84,0.23,1.44,0.7,1.8,1.4c0.36,0.7,0.54,1.54,0.54,2.49c0,1.39-0.27,2.49-0.82,3.29
				c-0.54,0.8-1.49,1.2-2.85,1.2h-3.83V0.15z M82.44,6.85c0.83,0,1.42-0.24,1.75-0.72c0.33-0.48,0.5-1.18,0.5-2.1
				c0-0.65-0.08-1.18-0.26-1.57c-0.17-0.4-0.48-0.69-0.9-0.88c-0.43-0.19-1.03-0.29-1.81-0.29h-1.38v5.56H82.44z M82.42,14.6
				c0.67,0,1.18-0.12,1.55-0.36c0.36-0.23,0.62-0.6,0.77-1.08c0.15-0.49,0.22-1.14,0.22-1.96c0-2.15-0.83-3.22-2.5-3.22h-2.13v6.62
				H82.42z"/>
			<path class="st2" d="M88.54,0.15H90v15.54h-1.46V0.15z"/>
			<path class="st2" d="M92.74,0.15h5.62v1.13h-4.14v5.83h3.38v1.07h-3.38v6.41h4.18v1.1h-5.66V0.15z"/>
			<path class="st2" d="M100.4,0.15h1.05l4.95,12.07V0.15h1.27v15.54h-1.04l-4.97-12.2v12.2h-1.27V0.15z"/>
			<path class="st2" d="M112.04,1.29h-3.13V0.15h7.63v1.13h-3.05v14.41h-1.46V1.29z"/>
			<path class="st2" d="M117.79,0.15h5.62v1.13h-4.14v5.83h3.38v1.07h-3.38v6.41h4.18v1.1h-5.66V0.15z"/>
		</g>
		<path class="st1" d="M2.94,24.56c0.89,0,1.68-0.4,2.21-1.03l4.45,1.89c0,0.03,0,0.05,0,0.08c0,1.28,1.04,2.32,2.32,2.32
			c1.28,0,2.32-1.04,2.32-2.32s-1.04-2.32-2.32-2.32c-0.65,0-1.23,0.26-1.65,0.69l-4.45-1.89c0.01-0.11,0.02-0.22,0.02-0.33
			c0-1.6-1.3-2.9-2.9-2.9c-1.6,0-2.9,1.3-2.9,2.9C0.04,23.27,1.34,24.56,2.94,24.56z"/>
		<path class="st2" d="M2.94,3.8c0.89,0,1.68,0.4,2.21,1.03L9.6,2.94c0-0.03,0-0.06,0-0.08c0-1.28,1.04-2.32,2.32-2.32
			c1.28,0,2.32,1.04,2.32,2.32c0,1.28-1.04,2.32-2.32,2.32c-0.65,0-1.23-0.27-1.65-0.69L5.82,6.38C5.83,6.48,5.84,6.59,5.84,6.7
			c0,1.6-1.3,2.9-2.9,2.9c-1.6,0-2.9-1.3-2.9-2.9C0.04,5.1,1.34,3.8,2.94,3.8z"/>
		<path class="st2" d="M2.32,16.51c1.28,0,2.32-1.04,2.32-2.32c0-0.03,0-0.06,0-0.08L17.42,8.6c0.53,0.63,1.33,1.03,2.21,1.03
			c1.6,0,2.9-1.3,2.9-2.9c0-1.6-1.3-2.9-2.9-2.9c-1.6,0-2.9,1.3-2.9,2.9c0,0.11,0.01,0.22,0.02,0.33L3.98,12.56
			c-0.42-0.43-1.01-0.69-1.65-0.69C1.04,11.87,0,12.91,0,14.19C0,15.48,1.04,16.51,2.32,16.51z"/>
		<path class="st2" d="M20.21,11.85c-1.28,0-2.32,1.04-2.32,2.32c0,0.03,0,0.06,0,0.08L5.11,19.76c-0.53-0.63-1.33-1.03-2.21-1.03
			c-1.6,0-2.9,1.3-2.9,2.9c0,1.6,1.3,2.9,2.9,2.9s2.9-1.3,2.9-2.9c0-0.11-0.01-0.22-0.02-0.33l12.78-5.51
			c0.42,0.43,1.01,0.69,1.65,0.69c1.28,0,2.32-1.04,2.32-2.32C22.53,12.89,21.5,11.85,20.21,11.85z"/>
		<path class="st1" d="M19.68,18.73c-0.89,0-1.68,0.4-2.21,1.03L4.68,14.25c0-0.03,0-0.06,0-0.08c0-1.28-1.04-2.32-2.32-2.32
			c-1.28,0-2.32,1.04-2.32,2.32c0,1.28,1.04,2.32,2.32,2.32c0.65,0,1.23-0.27,1.65-0.69l12.78,5.51c-0.01,0.11-0.02,0.22-0.02,0.33
			c0,1.6,1.3,2.9,2.9,2.9c1.6,0,2.9-1.3,2.9-2.9C22.57,20.03,21.28,18.73,19.68,18.73z"/>
		<path class="st1" d="M2.94,9.63c0.89,0,1.68-0.4,2.21-1.03l12.78,5.51c0,0.03,0,0.05,0,0.08c0,1.28,1.04,2.32,2.32,2.32
			c1.28,0,2.32-1.04,2.32-2.32c0-1.28-1.04-2.32-2.32-2.32c-0.65,0-1.23,0.27-1.65,0.69L5.82,7.05c0.01-0.11,0.02-0.22,0.02-0.33
			c0-1.6-1.3-2.9-2.9-2.9c-1.6,0-2.9,1.3-2.9,2.9C0.04,8.33,1.34,9.63,2.94,9.63z"/>
	</g>
</g>
</svg>
