<?xml version="1.0" encoding="utf-8"?>
<!-- Generator: Adobe Illustrator 25.2.3, SVG Export Plug-In . SVG Version: 6.00 Build 0)  -->
<svg version="1.1" id="Layer_1" xmlns="http://www.w3.org/2000/svg" xmlns:xlink="http://www.w3.org/1999/xlink" x="0px" y="0px"
	 viewBox="0 0 122.47 27.1" style="enable-background:new 0 0 122.47 27.1;" xml:space="preserve">
<style type="text/css">
	.st0{fill:#B6B6BC;}
	.st1{fill:#B9CD4F;}
	.st2{fill:#858388;}
	.st3{fill:#FFFFFF;}
</style>
<g>
	<g>
		<g>
			<path class="st0" d="M85.68,25.35c-0.3,0.33-0.71,0.5-1.15,0.5c-0.42,0-0.81-0.16-1.1-0.45c-0.41-0.41-0.41-0.83-0.41-1.74
				c0-0.91,0-1.34,0.41-1.74c0.29-0.29,0.67-0.45,1.1-0.45c0.82,0,1.38,0.53,1.51,1.29h-0.46c-0.12-0.55-0.51-0.88-1.05-0.88
				c-0.28,0-0.56,0.12-0.75,0.31c-0.27,0.28-0.3,0.57-0.3,1.47c0,0.9,0.03,1.2,0.3,1.48c0.19,0.19,0.46,0.3,0.75,0.3
				c0.31,0,0.62-0.13,0.82-0.37c0.18-0.21,0.24-0.45,0.24-0.78v-0.33h-1.06v-0.41h1.52v0.68C86.04,24.73,85.94,25.07,85.68,25.35z"
				/>
			<path class="st0" d="M89.59,25.81l-0.98-1.91h-1.04v1.91h-0.46V21.5h1.65c0.75,0,1.28,0.45,1.28,1.2c0,0.63-0.38,1.04-0.94,1.16
				l1.02,1.96H89.59z M88.73,21.91h-1.15v1.58h1.15c0.5,0,0.86-0.26,0.86-0.79C89.59,22.18,89.23,21.91,88.73,21.91z"/>
			<path class="st0" d="M92.53,25.85c-0.87,0-1.5-0.6-1.5-1.46V21.5h0.46v2.85c0,0.65,0.41,1.08,1.04,1.08
				c0.63,0,1.05-0.43,1.05-1.08V21.5h0.46v2.89C94.04,25.25,93.41,25.85,92.53,25.85z"/>
			<path class="st0" d="M96.83,24.04h-1.14v1.77h-0.46V21.5h1.6c0.79,0,1.33,0.49,1.33,1.27C98.17,23.54,97.62,24.04,96.83,24.04z
				 M96.79,21.91h-1.1v1.71h1.1c0.54,0,0.91-0.29,0.91-0.86C97.71,22.19,97.33,21.91,96.79,21.91z"/>
			<path class="st0" d="M101.49,25.4c-0.29,0.29-0.67,0.45-1.1,0.45c-0.43,0-0.81-0.16-1.1-0.45c-0.41-0.41-0.41-0.83-0.41-1.74
				c0-0.91,0-1.34,0.41-1.74c0.29-0.29,0.67-0.45,1.1-0.45c0.43,0,0.81,0.16,1.1,0.45c0.41,0.41,0.41,0.83,0.41,1.74
				C101.9,24.57,101.9,24.99,101.49,25.4z M101.14,22.18c-0.19-0.19-0.46-0.31-0.75-0.31c-0.28,0-0.56,0.12-0.75,0.31
				c-0.27,0.28-0.3,0.57-0.3,1.47c0,0.9,0.03,1.19,0.3,1.47c0.19,0.19,0.46,0.31,0.75,0.31c0.28,0,0.56-0.12,0.75-0.31
				c0.27-0.28,0.3-0.57,0.3-1.47C101.44,22.75,101.41,22.46,101.14,22.18z"/>
			<path class="st0" d="M104.49,25.81V21.5h0.46v4.31H104.49z"/>
			<path class="st0" d="M108.95,25.81l-2.29-3.46v3.46h-0.46V21.5h0.44l2.29,3.45V21.5h0.46v4.31H108.95z"/>
			<path class="st0" d="M111.9,21.91v3.9h-0.46v-3.9h-1.25V21.5h2.96v0.41H111.9z"/>
			<path class="st0" d="M113.96,25.81V21.5h2.68v0.41h-2.22v1.52h1.89v0.41h-1.89v1.56h2.22v0.41H113.96z"/>
			<path class="st0" d="M118.93,25.85c-0.42,0-0.81-0.16-1.1-0.45c-0.41-0.41-0.41-0.83-0.41-1.74c0-0.91,0-1.34,0.41-1.74
				c0.29-0.29,0.68-0.45,1.1-0.45c0.78,0,1.35,0.47,1.5,1.28h-0.47c-0.12-0.53-0.48-0.87-1.02-0.87c-0.28,0-0.56,0.11-0.75,0.3
				c-0.27,0.28-0.3,0.58-0.3,1.48c0,0.9,0.03,1.2,0.3,1.48c0.19,0.19,0.46,0.3,0.75,0.3c0.54,0,0.92-0.34,1.04-0.87h0.46
				C120.29,25.37,119.7,25.85,118.93,25.85z"/>
		</g>
	</g>
	<g>
		<path class="st1" d="M22.63,0H12.09C9.67,0,7.7,1.97,7.7,4.39v3.38h7.23c2.43,0,4.39,1.97,4.39,4.39v7.16h3.31
			c2.43,0,4.39-1.97,4.39-4.39V4.39C27.02,1.97,25.06,0,22.63,0z"/>
		<path class="st2" d="M7.7,14.93V7.78H4.39C1.97,7.78,0,9.74,0,12.17v10.54c0,2.43,1.97,4.39,4.39,4.39h10.54
			c2.43,0,4.39-1.97,4.39-4.39v-3.38h-7.23C9.67,19.32,7.7,17.36,7.7,14.93z"/>
		<path class="st3" d="M14.93,7.78H7.7v7.16c0,2.42,1.96,4.39,4.39,4.39h7.23v-7.16C19.32,9.74,17.36,7.78,14.93,7.78z"/>
	</g>
	<g>
		<g>
			<path class="st2" d="M31.82,18.41V2.79h1.35V17.2h5.79v1.21H31.82z"/>
			<path class="st2" d="M40.55,12.39c0-2.58,0.48-5.77,3.64-5.77c3.23,0,3.58,3.48,3.58,6c0,2.6-0.33,6.08-3.65,6.08
				C40.63,18.7,40.55,15.06,40.55,12.39z M46.57,12.64c0-1.79-0.04-4.96-2.52-4.96c-2.17,0-2.29,3.15-2.29,4.73
				c0,1.71-0.13,5.23,2.35,5.23C46.54,17.64,46.57,14.37,46.57,12.64z"/>
			<path class="st2" d="M56.23,14.6c0.02,2.12-0.77,4.1-3.19,4.1c-3.37,0-3.5-3.52-3.5-6.1c0-2.48,0.27-5.98,3.46-5.98
				c2.06,0,3.15,1.77,3.12,3.69h-1.19c-0.04-1.4-0.71-2.67-2.02-2.62c-2.27,0.06-2.17,3.33-2.17,5.12c0,1.6-0.04,4.83,2.31,4.83
				c1.69,0,1.83-1.73,1.96-3.04H56.23z"/>
			<path class="st2" d="M57.73,9.81c-0.06-2.02,1.06-3.19,3.06-3.19c0.96,0,1.83,0.21,2.37,0.87c0.52,0.67,0.56,1.44,0.56,2.25v7.06
				c0,0.69,0.12,0.79,0.83,0.77v0.88c-0.42,0.17-0.9,0.15-1.33,0.06c-0.54-0.21-0.52-0.5-0.65-1.04h-0.02
				c-0.6,0.83-1.54,1.23-2.54,1.23c-2.1,0-2.6-1.44-2.6-3.25c0-1.33,0.37-2.33,1.58-2.96c1.02-0.48,2.12-0.81,3.15-1.29
				c0.19-0.08,0.29-0.31,0.31-0.46c0.08-0.48,0.04-1.44-0.04-1.92c-0.17-0.69-0.58-1.15-1.64-1.15c-1.71,0-1.69,1.1-1.87,2.12H57.73
				z M62.52,12.2c-0.79,0.44-1.6,0.73-2.4,1.06c-1.23,0.54-1.5,1.02-1.5,2.38c0,1.12,0.36,2,1.6,2c0.79,0,1.35-0.33,1.71-0.85
				c0.5-0.73,0.58-1.71,0.58-2.56V12.2z"/>
			<path class="st2" d="M66.69,18.41V2.79h1.21v15.62H66.69z"/>
		</g>
	</g>
	<g>
		<g>
			<path class="st2" d="M72.41,18.47V2.85h2.77c3.52,0,5.27,0.88,5.27,4.08c0,1.5-0.35,2.65-1.27,3.39c-1,0.86-2.73,1.08-3.35,1.08
				h-2.06v7.06H72.41z M73.76,10.21h1.17c2.42,0,4.16-0.35,4.16-3.14c0-2.38-1.21-2.96-3.35-3h-1.98V10.21z"/>
			<path class="st2" d="M82.1,9.87c-0.06-2.02,1.06-3.19,3.06-3.19c0.96,0,1.83,0.21,2.38,0.87c0.52,0.67,0.56,1.44,0.56,2.25v7.06
				c0,0.69,0.13,0.79,0.83,0.77v0.88c-0.42,0.17-0.9,0.14-1.33,0.06c-0.54-0.21-0.52-0.5-0.65-1.04h-0.02
				c-0.6,0.83-1.54,1.23-2.54,1.23c-2.1,0-2.6-1.44-2.6-3.25c0-1.33,0.37-2.33,1.58-2.96c1.02-0.48,2.12-0.81,3.15-1.29
				c0.19-0.08,0.29-0.31,0.31-0.46c0.08-0.48,0.04-1.44-0.04-1.92c-0.17-0.69-0.58-1.15-1.64-1.15c-1.71,0-1.69,1.1-1.87,2.13H82.1z
				 M86.89,12.27c-0.79,0.44-1.6,0.73-2.39,1.06c-1.23,0.54-1.5,1.02-1.5,2.38c0,1.12,0.36,2,1.61,2c0.79,0,1.35-0.33,1.71-0.85
				c0.5-0.73,0.58-1.71,0.58-2.56V12.27z"/>
			<path class="st2" d="M91.93,8.31h0.04c0.61-1.21,1.4-1.64,2.73-1.62v1.27c-1.88-0.04-2.71,1.17-2.71,2.98v7.54h-1.21V6.98h1.15
				V8.31z"/>
			<path class="st2" d="M99.33,18.58c-0.42,0.06-1.15,0.19-1.56,0.06c-1.06-0.37-1.25-0.9-1.25-2v-8.6h-1.04V6.98h1.04V3.6h1.21
				v3.38h1.6v1.06h-1.6v8.48c0,0.4,0.04,0.98,0.61,1.08c0.31,0.13,0.69,0.06,1-0.02V18.58z"/>
			<path class="st2" d="M102.33,18.47h-1.21V6.98h1.21V8.1h0.04c0.58-0.85,1.48-1.42,2.6-1.42c1.48,0,2.69,1,2.69,2.67v9.12h-1.21
				v-8.35c0-1.31-0.1-2.38-1.69-2.38c-1.21,0-2.44,0.96-2.44,2.25V18.47z"/>
			<path class="st2" d="M116.35,12.66h-5.4c0,1.48-0.21,5.04,2.17,5.04c1.71,0,1.91-1.61,2.02-2.98h1.17c0,2.1-0.85,4.04-3.21,4.04
				c-3.21,0-3.35-3.63-3.35-6c0-2.31,0.15-6.08,3.31-6.08c2.67,0,3.29,2.62,3.29,4.81V12.66z M115.14,11.6
				c0-1.46-0.15-3.85-2.1-3.85c-1.88,0-2.08,2.5-2.08,3.85H115.14z"/>
			<path class="st2" d="M119.7,8.31h0.04c0.61-1.21,1.4-1.64,2.73-1.62v1.27c-1.87-0.04-2.71,1.17-2.71,2.98v7.54h-1.21V6.98h1.14
				V8.31z"/>
		</g>
	</g>
</g>
</svg>
