<?xml version="1.0" encoding="utf-8"?>
<!-- Generator: Adobe Illustrator 25.2.3, SVG Export Plug-In . SVG Version: 6.00 Build 0)  -->
<svg version="1.1" id="Layer_1" xmlns="http://www.w3.org/2000/svg" xmlns:xlink="http://www.w3.org/1999/xlink" x="0px" y="0px"
	 viewBox="0 0 102.27 57.91" style="enable-background:new 0 0 102.27 57.91;" xml:space="preserve">
<style type="text/css">
	.st0{fill:#B6B6BC;}
	.st1{opacity:0.5;fill:#B9CD4F;}
	.st2{fill:#B9CD4F;}
	.st3{fill:#858388;}
</style>
<g>
	<g>
		<g>
			<path class="st0" d="M69.5,44.74c-0.29,0.31-0.67,0.47-1.09,0.47c-0.4,0-0.77-0.15-1.04-0.42c-0.38-0.38-0.38-0.78-0.38-1.64
				c0-0.86,0-1.26,0.38-1.64c0.27-0.27,0.63-0.42,1.04-0.42c0.78,0,1.3,0.5,1.42,1.22H69.4c-0.11-0.51-0.48-0.83-0.99-0.83
				c-0.27,0-0.53,0.11-0.7,0.29c-0.26,0.26-0.29,0.54-0.29,1.39c0,0.85,0.03,1.13,0.29,1.39c0.18,0.18,0.43,0.29,0.7,0.29
				c0.3,0,0.58-0.12,0.77-0.35c0.17-0.2,0.23-0.42,0.23-0.74v-0.31h-1v-0.38h1.43v0.65C69.85,44.16,69.75,44.47,69.5,44.74z"/>
			<path class="st0" d="M73.2,45.18l-0.92-1.8h-0.98v1.8h-0.43v-4.07h1.56c0.71,0,1.2,0.43,1.2,1.13c0,0.59-0.36,0.98-0.88,1.09
				l0.97,1.84H73.2z M72.38,41.5h-1.08v1.49h1.08c0.47,0,0.81-0.25,0.81-0.74C73.19,41.75,72.85,41.5,72.38,41.5z"/>
			<path class="st0" d="M75.97,45.21c-0.82,0-1.42-0.56-1.42-1.38v-2.72h0.43v2.69c0,0.62,0.39,1.02,0.98,1.02
				c0.59,0,0.99-0.41,0.99-1.02v-2.69h0.43v2.72C77.39,44.65,76.79,45.21,75.97,45.21z"/>
			<path class="st0" d="M80.02,43.5h-1.08v1.67h-0.43v-4.07h1.51c0.74,0,1.26,0.46,1.26,1.19C81.28,43.03,80.76,43.5,80.02,43.5z
				 M79.98,41.5h-1.04v1.62h1.04c0.51,0,0.86-0.27,0.86-0.81C80.84,41.77,80.49,41.5,79.98,41.5z"/>
			<path class="st0" d="M84.41,44.79c-0.27,0.27-0.63,0.42-1.04,0.42c-0.41,0-0.77-0.15-1.04-0.42c-0.38-0.38-0.38-0.78-0.38-1.64
				c0-0.86,0-1.26,0.38-1.64c0.27-0.27,0.63-0.42,1.04-0.42c0.41,0,0.77,0.15,1.04,0.42c0.38,0.38,0.38,0.78,0.38,1.64
				C84.8,44.01,84.8,44.41,84.41,44.79z M84.08,41.76c-0.18-0.18-0.43-0.29-0.7-0.29s-0.53,0.11-0.7,0.29
				c-0.26,0.26-0.29,0.54-0.29,1.39c0,0.85,0.03,1.12,0.29,1.39c0.18,0.18,0.43,0.29,0.7,0.29s0.53-0.11,0.7-0.29
				c0.26-0.26,0.29-0.54,0.29-1.39C84.36,42.29,84.33,42.02,84.08,41.76z"/>
			<path class="st0" d="M87.24,45.18v-4.07h0.43v4.07H87.24z"/>
			<path class="st0" d="M91.45,45.18l-2.16-3.26v3.26h-0.43v-4.07h0.41l2.16,3.25v-3.25h0.43v4.07H91.45z"/>
			<path class="st0" d="M94.23,41.5v3.68H93.8V41.5h-1.18v-0.39h2.79v0.39H94.23z"/>
			<path class="st0" d="M96.17,45.18v-4.07h2.52v0.39H96.6v1.43h1.78v0.39H96.6v1.47h2.09v0.39H96.17z"/>
			<path class="st0" d="M100.86,45.21c-0.4,0-0.77-0.15-1.04-0.42c-0.38-0.38-0.38-0.78-0.38-1.64c0-0.86,0-1.26,0.38-1.64
				c0.27-0.27,0.64-0.42,1.04-0.42c0.73,0,1.27,0.45,1.41,1.21h-0.44c-0.11-0.5-0.46-0.82-0.97-0.82c-0.27,0-0.53,0.1-0.7,0.29
				c-0.26,0.26-0.29,0.54-0.29,1.39c0,0.85,0.03,1.13,0.29,1.39c0.18,0.18,0.43,0.29,0.7,0.29c0.51,0,0.87-0.32,0.98-0.82h0.43
				C102.14,44.76,101.59,45.21,100.86,45.21z"/>
		</g>
	</g>
	<polygon class="st1" points="0,45.64 26.25,35.9 26.25,21.07 0,13.63 	"/>
	<polygon class="st2" points="8.57,50.66 27.85,37.58 27.85,18.3 8.57,9.14 	"/>
	<g>
		<g>
			<polygon class="st3" points="35.44,12.74 34.46,12.74 34.46,6.49 15.66,1.29 15.66,9.63 14.68,9.63 14.68,0 35.44,5.75 			"/>
		</g>
		<g>
			<polygon class="st3" points="14.68,57.91 14.68,47.95 15.66,47.95 15.66,56.48 34.46,49.18 34.46,41.01 35.44,41.01 35.44,49.85 
							"/>
		</g>
	</g>
	<g>
		<path class="st3" d="M34.29,22.93h-1.81v3.54h-1.84v-9.4h3.65c1.94,0,3.1,1.33,3.1,2.93C37.4,21.6,36.23,22.93,34.29,22.93z
			 M34.2,18.71h-1.72v2.58h1.72c0.83,0,1.36-0.52,1.36-1.28C35.56,19.23,35.03,18.71,34.2,18.71z"/>
		<path class="st3" d="M43.29,26.47l-0.56-1.66h-3.34l-0.57,1.66h-1.92l3.42-9.4h1.44l3.43,9.4H43.29z M41.09,19.84l-1.19,3.42h2.34
			L41.09,19.84z"/>
		<path class="st3" d="M52.7,26.47v-5.48l-1.8,3.57h-1.24l-1.81-3.57v5.48h-1.84v-9.4h1.81l2.46,5.08l2.44-5.08h1.81v9.4H52.7z"/>
		<path class="st3" d="M60.03,22.93h-1.81v3.54h-1.84v-9.4h3.65c1.94,0,3.1,1.33,3.1,2.93C63.13,21.6,61.97,22.93,60.03,22.93z
			 M59.93,18.71h-1.72v2.58h1.72c0.83,0,1.36-0.52,1.36-1.28C61.29,19.23,60.76,18.71,59.93,18.71z"/>
		<path class="st3" d="M69.02,26.47l-0.56-1.66h-3.34l-0.57,1.66h-1.91l3.42-9.4h1.44l3.43,9.4H69.02z M66.82,19.84l-1.19,3.42h2.34
			L66.82,19.84z"/>
	</g>
	<g>
		<path class="st3" d="M34.34,38.07v-9.4h1v9.4H34.34z"/>
		<path class="st3" d="M43.72,38.07l-4.99-7.54v7.54h-1v-9.4h0.95l4.99,7.51v-7.51h1v9.4H43.72z"/>
		<path class="st3" d="M52.48,37.07c-0.66,0.71-1.55,1.08-2.51,1.08c-0.92,0-1.77-0.34-2.4-0.98c-0.88-0.88-0.88-1.81-0.88-3.8
			c0-1.99,0-2.92,0.88-3.8c0.63-0.63,1.47-0.98,2.4-0.98c1.8,0,3.01,1.16,3.29,2.81h-1c-0.26-1.19-1.11-1.92-2.28-1.92
			c-0.62,0-1.22,0.25-1.62,0.67c-0.59,0.61-0.66,1.24-0.66,3.21c0,1.97,0.07,2.62,0.66,3.22c0.41,0.42,1,0.66,1.62,0.66
			c0.69,0,1.35-0.28,1.78-0.81c0.38-0.46,0.53-0.98,0.53-1.7v-0.71h-2.31v-0.88h3.31v1.49C53.29,35.72,53.06,36.44,52.48,37.07z"/>
		<path class="st3" d="M55.28,38.07v-9.4h5.84v0.9h-4.83v3.32h4.12v0.9h-4.12v3.39h4.83v0.9H55.28z"/>
		<path class="st3" d="M68.85,38.07l-4.99-7.54v7.54h-1v-9.4h0.95l4.99,7.51v-7.51h1v9.4H68.85z"/>
		<path class="st3" d="M72.18,38.07v-9.4h1v9.4H72.18z"/>
		<path class="st3" d="M75.56,38.07v-9.4h5.84v0.9h-4.83v3.32h4.12v0.9h-4.12v3.39h4.83v0.9H75.56z"/>
		<path class="st3" d="M88.54,38.07L86.4,33.9h-2.26v4.17h-1v-9.4h3.6c1.64,0,2.79,0.99,2.79,2.61c0,1.37-0.83,2.27-2.05,2.52
			l2.23,4.27H88.54z M86.65,29.56h-2.51v3.45h2.51c1.1,0,1.88-0.57,1.88-1.72C88.52,30.14,87.75,29.56,86.65,29.56z"/>
		<path class="st3" d="M92.33,27.76h-0.87l1.16-2.02h1.14L92.33,27.76z M91.45,38.07v-9.4h1v9.4H91.45z"/>
		<path class="st3" d="M100.31,38.07l-0.75-2.13h-4.11l-0.75,2.13h-1.07l3.46-9.4h0.85l3.45,9.4H100.31z M97.53,30.11l-1.77,4.97
			h3.51L97.53,30.11z"/>
	</g>
</g>
</svg>
