<?xml version="1.0" encoding="utf-8"?>
<!-- Generator: Adobe Illustrator 25.2.3, SVG Export Plug-In . SVG Version: 6.00 Build 0)  -->
<svg version="1.1" id="Layer_1" xmlns="http://www.w3.org/2000/svg" xmlns:xlink="http://www.w3.org/1999/xlink" x="0px" y="0px"
	 viewBox="0 0 184.68 76.9" style="enable-background:new 0 0 184.68 76.9;" xml:space="preserve">
<style type="text/css">
	.st0{fill:#7E7D80;}
	.st1{fill:#ACBA00;}
</style>
<g>
	<g>
		<path class="st0" d="M72.06,42.45c-0.92,1.02-2.26,1.61-3.67,1.61c-1.33,0-2.57-0.51-3.49-1.43c-1.28-1.28-1.29-2.53-1.29-5.67
			c0-3.16,0.02-4.4,1.29-5.67c0.92-0.92,2.16-1.43,3.49-1.43c2.43,0,4.36,1.63,4.77,4.08H72.1c-0.41-1.94-1.82-3.14-3.71-3.14
			c-1,0-1.94,0.37-2.65,1.08c-1,1-1.08,2.1-1.08,5.08c0,2.98,0.08,4.08,1.08,5.08c0.71,0.71,1.65,1.08,2.65,1.08
			c1.1,0,2.18-0.47,2.9-1.35c0.61-0.76,0.84-1.57,0.84-2.77v-1.26h-3.75v-0.94h4.81v2.28C73.2,40.54,72.9,41.56,72.06,42.45z"/>
		<path class="st0" d="M81.83,37.5h-3.85v6.44h-1.06V29.97h5.32c2.28,0,4,1.31,4,3.75c0,2.1-1.26,3.43-3.22,3.77l3.37,6.46h-1.24
			L81.83,37.5z M82.11,30.91h-4.12v5.65h4.12c1.81,0,3.08-0.88,3.08-2.82C85.19,31.79,83.91,30.91,82.11,30.91z"/>
		<path class="st0" d="M94.41,44.06c-2.81,0-4.79-1.92-4.79-4.65v-9.44h1.06v9.3c0,2.31,1.47,3.85,3.73,3.85
			c2.26,0,3.73-1.53,3.73-3.85v-9.3h1.06v9.44C99.2,42.13,97.22,44.06,94.41,44.06z"/>
		<path class="st0" d="M108.44,38.01h-4.06v5.93h-1.06V29.97h5.12c2.41,0,4.22,1.45,4.22,4.02
			C112.66,36.54,110.85,38.01,108.44,38.01z M108.32,30.91h-3.94v6.16h3.94c1.94,0,3.28-0.98,3.28-3.08
			C111.6,31.89,110.27,30.91,108.32,30.91z"/>
		<path class="st0" d="M123.43,42.62c-0.92,0.92-2.16,1.43-3.49,1.43s-2.57-0.51-3.49-1.43c-1.28-1.28-1.29-2.53-1.29-5.67
			c0-3.16,0.02-4.4,1.29-5.67c0.92-0.92,2.16-1.43,3.49-1.43s2.57,0.51,3.49,1.43c1.28,1.28,1.3,2.51,1.3,5.67
			C124.73,40.09,124.71,41.35,123.43,42.62z M122.59,31.87c-0.71-0.71-1.65-1.08-2.65-1.08s-1.94,0.37-2.65,1.08
			c-1,1-1.08,2.1-1.08,5.08c0,2.98,0.08,4.08,1.08,5.08c0.71,0.71,1.65,1.08,2.65,1.08s1.94-0.37,2.65-1.08c1-1,1.08-2.1,1.08-5.08
			C123.67,33.97,123.59,32.87,122.59,31.87z"/>
		<path class="st0" d="M133.5,29.97h1.06v13.97h-1.06V29.97z"/>
		<path class="st0" d="M139.93,31.79v12.15h-1.06V29.97h1.06L148,42.07V29.97h1.06v13.97H148L139.93,31.79z"/>
		<path class="st0" d="M157.03,43.94h-1.06V30.91h-4.16v-0.94h9.4v0.94h-4.18V43.94z"/>
		<path class="st0" d="M163.95,29.97h8.48v0.94h-7.42v5.51h6.32v0.94h-6.32V43h7.42v0.94h-8.48V29.97z"/>
		<path class="st0" d="M179.93,44.06c-1.33,0-2.57-0.51-3.49-1.43c-1.28-1.28-1.29-2.53-1.29-5.67c0-3.16,0.02-4.4,1.29-5.67
			c0.92-0.92,2.16-1.43,3.49-1.43c2.51,0,4.28,1.57,4.75,4.08h-1.08c-0.41-1.94-1.79-3.14-3.67-3.14c-1,0-1.94,0.37-2.65,1.08
			c-1,1-1.08,2.1-1.08,5.08c0,2.98,0.08,4.08,1.08,5.08c0.71,0.71,1.65,1.08,2.65,1.08c1.88,0,3.3-1.2,3.71-3.14h1.04
			C184.2,42.49,182.4,44.06,179.93,44.06z"/>
	</g>
	<g>
		<path class="st0" d="M64.3,55.81v-8.38h0.89v8.38H64.3z"/>
		<path class="st0" d="M71.18,55.81v-3.57c0-1.02-0.55-1.54-1.42-1.54c-0.87,0-1.44,0.53-1.44,1.54v3.57h-0.85v-5.79h0.85v0.64
			c0.41-0.47,0.98-0.71,1.62-0.71c0.62,0,1.13,0.19,1.48,0.54c0.41,0.4,0.6,0.94,0.6,1.61v3.71H71.18z"/>
		<path class="st0" d="M77.79,55.81v-3.57c0-1.02-0.55-1.54-1.42-1.54c-0.87,0-1.44,0.53-1.44,1.54v3.57h-0.85v-5.79h0.85v0.64
			c0.41-0.47,0.98-0.71,1.62-0.71c0.62,0,1.13,0.19,1.48,0.54c0.41,0.4,0.6,0.94,0.6,1.61v3.71H77.79z"/>
		<path class="st0" d="M84.41,55.23c-0.4,0.4-0.95,0.66-1.66,0.66c-0.71,0-1.26-0.26-1.66-0.66c-0.59-0.6-0.71-1.41-0.71-2.31
			c0-0.89,0.12-1.71,0.71-2.31c0.4-0.4,0.95-0.66,1.66-0.66c0.71,0,1.26,0.26,1.66,0.66c0.59,0.6,0.71,1.41,0.71,2.31
			C85.12,53.81,85,54.63,84.41,55.23z M83.81,51.13c-0.27-0.27-0.65-0.42-1.06-0.42s-0.78,0.15-1.05,0.42
			c-0.42,0.42-0.47,1.14-0.47,1.79c0,0.65,0.05,1.36,0.47,1.79c0.27,0.27,0.64,0.42,1.05,0.42s0.79-0.15,1.06-0.42
			c0.42-0.42,0.46-1.14,0.46-1.79C84.27,52.27,84.24,51.55,83.81,51.13z"/>
		<path class="st0" d="M88.76,55.81H88l-2.12-5.79h0.92l1.58,4.65l1.59-4.65h0.92L88.76,55.81z"/>
		<path class="st0" d="M95.24,55.81v-0.55c-0.47,0.47-0.89,0.62-1.67,0.62c-0.8,0-1.27-0.15-1.63-0.53
			c-0.28-0.28-0.44-0.72-0.44-1.18c0-1.01,0.71-1.67,2-1.67h1.74v-0.55c0-0.85-0.42-1.27-1.48-1.27c-0.74,0-1.12,0.18-1.46,0.66
			l-0.58-0.53c0.52-0.67,1.11-0.86,2.05-0.86c1.55,0,2.32,0.67,2.32,1.93v3.93H95.24z M95.24,53.14h-1.62
			c-0.87,0-1.29,0.35-1.29,1.02c0,0.67,0.41,0.99,1.33,0.99c0.49,0,0.93-0.03,1.29-0.39c0.2-0.19,0.29-0.52,0.29-1V53.14z"/>
		<path class="st0" d="M100.39,55.88c-1.46,0-2.57-0.99-2.57-2.97c0-1.98,1.11-2.97,2.57-2.97c0.8,0,1.31,0.21,1.91,0.86l-0.58,0.54
			c-0.44-0.48-0.78-0.65-1.33-0.65c-0.57,0-1.04,0.22-1.34,0.66c-0.27,0.38-0.38,0.82-0.38,1.55c0,0.73,0.11,1.18,0.38,1.55
			c0.31,0.44,0.78,0.66,1.34,0.66c0.55,0,0.89-0.18,1.33-0.66l0.58,0.55C101.7,55.67,101.19,55.88,100.39,55.88z"/>
		<path class="st0" d="M103.86,48.38v-0.95h0.95v0.95H103.86z M103.91,55.81v-5.79h0.85v5.79H103.91z"/>
		<path class="st0" d="M110.61,55.23c-0.4,0.4-0.95,0.66-1.66,0.66c-0.71,0-1.26-0.26-1.66-0.66c-0.59-0.6-0.71-1.41-0.71-2.31
			c0-0.89,0.12-1.71,0.71-2.31c0.4-0.4,0.95-0.66,1.66-0.66c0.71,0,1.26,0.26,1.66,0.66c0.59,0.6,0.71,1.41,0.71,2.31
			C111.31,53.81,111.19,54.63,110.61,55.23z M110.01,51.13c-0.27-0.27-0.65-0.42-1.06-0.42c-0.41,0-0.78,0.15-1.05,0.42
			c-0.42,0.42-0.47,1.14-0.47,1.79c0,0.65,0.05,1.36,0.47,1.79c0.27,0.27,0.64,0.42,1.05,0.42c0.41,0,0.79-0.15,1.06-0.42
			c0.42-0.42,0.46-1.14,0.46-1.79C110.47,52.27,110.43,51.55,110.01,51.13z M109.15,48.82h-0.78l1.04-1.8h1.01L109.15,48.82z"/>
		<path class="st0" d="M116.83,55.81v-3.57c0-1.02-0.55-1.54-1.42-1.54c-0.87,0-1.44,0.53-1.44,1.54v3.57h-0.85v-5.79h0.85v0.64
			c0.41-0.47,0.98-0.71,1.62-0.71c0.62,0,1.13,0.19,1.48,0.54c0.41,0.4,0.6,0.94,0.6,1.61v3.71H116.83z"/>
		<path class="st0" d="M124.1,57.21c-0.12,0.32-0.25,0.53-0.41,0.68c-0.31,0.29-0.72,0.4-1.13,0.4h-0.36v-0.75h0.26
			c0.59,0,0.77-0.19,0.95-0.72l0.41-1.13l-2.08-5.67h0.92l1.59,4.65l1.58-4.65h0.92L124.1,57.21z"/>
		<path class="st0" d="M133.47,48.24v7.58h-0.89v-7.58h-2.42v-0.8h5.74v0.8H133.47z"/>
		<path class="st0" d="M136.94,53.14c0,1.27,0.6,2,1.71,2c0.67,0,1.06-0.2,1.52-0.66l0.58,0.51c-0.59,0.59-1.13,0.89-2.12,0.89
			c-1.53,0-2.53-0.92-2.53-2.97c0-1.87,0.91-2.97,2.38-2.97c1.49,0,2.38,1.08,2.38,2.8v0.39H136.94z M139.82,51.54
			c-0.22-0.53-0.74-0.87-1.35-0.87s-1.13,0.34-1.35,0.87c-0.13,0.32-0.15,0.49-0.18,0.96H140
			C139.98,52.04,139.95,51.86,139.82,51.54z"/>
		<path class="st0" d="M144.9,55.88c-1.46,0-2.57-0.99-2.57-2.97c0-1.98,1.11-2.97,2.57-2.97c0.8,0,1.31,0.21,1.91,0.86l-0.58,0.54
			c-0.44-0.48-0.78-0.65-1.33-0.65c-0.57,0-1.04,0.22-1.34,0.66c-0.27,0.38-0.38,0.82-0.38,1.55c0,0.73,0.11,1.18,0.38,1.55
			c0.31,0.44,0.78,0.66,1.34,0.66c0.55,0,0.89-0.18,1.33-0.66l0.58,0.55C146.2,55.67,145.7,55.88,144.9,55.88z"/>
		<path class="st0" d="M152.12,55.81v-3.57c0-1.02-0.55-1.54-1.42-1.54s-1.44,0.53-1.44,1.54v3.57h-0.85v-5.79h0.85v0.64
			c0.41-0.47,0.98-0.71,1.62-0.71c0.62,0,1.13,0.19,1.48,0.54c0.41,0.4,0.6,0.94,0.6,1.61v3.71H152.12z"/>
		<path class="st0" d="M158.74,55.23c-0.4,0.4-0.95,0.66-1.66,0.66c-0.71,0-1.26-0.26-1.66-0.66c-0.59-0.6-0.71-1.41-0.71-2.31
			c0-0.89,0.12-1.71,0.71-2.31c0.4-0.4,0.95-0.66,1.66-0.66c0.71,0,1.26,0.26,1.66,0.66c0.59,0.6,0.71,1.41,0.71,2.31
			C159.45,53.81,159.33,54.63,158.74,55.23z M158.14,51.13c-0.27-0.27-0.65-0.42-1.06-0.42s-0.78,0.15-1.05,0.42
			c-0.42,0.42-0.47,1.14-0.47,1.79c0,0.65,0.05,1.36,0.47,1.79c0.27,0.27,0.64,0.42,1.05,0.42s0.79-0.15,1.06-0.42
			c0.42-0.42,0.46-1.14,0.46-1.79C158.6,52.27,158.57,51.55,158.14,51.13z"/>
		<path class="st0" d="M162.71,55.81c-1.01,0-1.47-0.66-1.47-1.54v-6.84h0.85v6.8c0,0.57,0.19,0.85,0.78,0.85h0.46v0.73H162.71z"/>
		<path class="st0" d="M168.24,55.23c-0.4,0.4-0.95,0.66-1.66,0.66c-0.71,0-1.26-0.26-1.66-0.66c-0.59-0.6-0.71-1.41-0.71-2.31
			c0-0.89,0.12-1.71,0.71-2.31c0.4-0.4,0.95-0.66,1.66-0.66c0.71,0,1.26,0.26,1.66,0.66c0.59,0.6,0.71,1.41,0.71,2.31
			C168.95,53.81,168.83,54.63,168.24,55.23z M167.64,51.13c-0.27-0.27-0.65-0.42-1.06-0.42c-0.41,0-0.78,0.15-1.05,0.42
			c-0.42,0.42-0.47,1.14-0.47,1.79c0,0.65,0.05,1.36,0.47,1.79c0.27,0.27,0.64,0.42,1.05,0.42c0.41,0,0.79-0.15,1.06-0.42
			c0.42-0.42,0.46-1.14,0.46-1.79C168.1,52.27,168.06,51.55,167.64,51.13z"/>
		<path class="st0" d="M172.62,58.47c-0.87,0-1.35-0.22-1.97-0.78l0.55-0.54c0.42,0.38,0.72,0.58,1.39,0.58
			c1.12,0,1.59-0.79,1.59-1.78v-0.91c-0.47,0.6-1,0.75-1.62,0.75c-0.59,0-1.09-0.21-1.4-0.52c-0.58-0.58-0.71-1.47-0.71-2.41
			c0-0.94,0.13-1.84,0.71-2.41c0.31-0.31,0.82-0.51,1.41-0.51c0.64,0,1.15,0.14,1.62,0.75v-0.68h0.84v5.97
			C175.03,57.43,174.14,58.47,172.62,58.47z M172.75,50.71c-1.26,0-1.45,1.08-1.45,2.17s0.19,2.16,1.45,2.16
			c1.26,0,1.44-1.08,1.44-2.16S174.01,50.71,172.75,50.71z"/>
		<path class="st0" d="M177.93,48.82h-0.78l1.04-1.8h1.01L177.93,48.82z M177.15,55.81v-5.79H178v5.79H177.15z"/>
		<path class="st0" d="M183.41,55.81v-0.55c-0.47,0.47-0.89,0.62-1.67,0.62c-0.8,0-1.27-0.15-1.63-0.53
			c-0.28-0.28-0.44-0.72-0.44-1.18c0-1.01,0.71-1.67,2-1.67h1.74v-0.55c0-0.85-0.42-1.27-1.48-1.27c-0.74,0-1.12,0.18-1.46,0.66
			l-0.58-0.53c0.52-0.67,1.11-0.86,2.05-0.86c1.55,0,2.32,0.67,2.32,1.93v3.93H183.41z M183.41,53.14h-1.62
			c-0.87,0-1.29,0.35-1.29,1.02c0,0.67,0.41,0.99,1.33,0.99c0.49,0,0.93-0.03,1.29-0.39c0.2-0.19,0.29-0.52,0.29-1V53.14z"/>
	</g>
	<g>
		<path class="st0" d="M51.69,39.43H32.2v3.09h16.19c-0.21,5.64-1.86,9.97-6.32,13.75c-3.82,3.08-8.58,5.22-13.53,5.63V15.02
			c7.62,0.54,13.99,4.67,18.27,11.07l2.68-2.13c-5.43-7.43-13.06-12.1-22.47-12.1c-0.6,0-1.19,0.03-1.78,0.06
			C11.21,12.83,0,24.42,0,38.67c0,13.84,11.47,25.62,25.24,26.36v11.83c0.55,0.02,1.1,0.04,1.65,0.04c0.55,0,1.1-0.02,1.65-0.04
			V64.99c6.64-0.48,13.21-3.42,17.72-8.31C50.87,51.66,51.83,45.95,51.69,39.43z M25.24,61.91C13.04,61.09,3.3,50.73,3.3,38.46
			c0-11.92,9.98-22.58,21.94-23.44V61.91z"/>
		<path class="st1" d="M28.54,6.27v-6.2C27.99,0.04,27.45,0,26.89,0c-0.56,0-1.1,0.04-1.65,0.06v0V5.3v3.3h3.3V6.27z"/>
	</g>
	<g>
		<path class="st1" d="M26.9,0c-0.56,0-1.1,0.04-1.65,0.06v0V5.3v3.3h3.3V6.27v-6.2C27.99,0.04,27.45,0,26.9,0z"/>
		<path class="st1" d="M25.24,11.93v3.09v39.13v7.77v3.11v11.83c0.55,0.02,1.1,0.04,1.65,0.04c0.55,0,1.1-0.02,1.64-0.04V64.99
			v-3.09V15.02v-3.11c-0.5-0.03-1.01-0.05-1.52-0.05C26.42,11.86,25.83,11.89,25.24,11.93z"/>
	</g>
</g>
</svg>
