<?xml version="1.0" encoding="utf-8"?>
<!-- Generator: Adobe Illustrator 25.2.3, SVG Export Plug-In . SVG Version: 6.00 Build 0)  -->
<svg version="1.1" id="Layer_1" xmlns="http://www.w3.org/2000/svg" xmlns:xlink="http://www.w3.org/1999/xlink" x="0px" y="0px"
	 viewBox="0 0 141.08 79.71" style="enable-background:new 0 0 141.08 79.71;" xml:space="preserve">
<style type="text/css">
	.st0{fill:#B0D154;}
	.st1{opacity:0.5;fill:#B0D154;}
	.st2{fill:#FFFFFF;}
</style>
<g>
	<g>
		<path class="st0" d="M80.36,62.49c-0.34,0.34-0.83,0.52-1.42,0.52h-1.92v-5.6h1.92c0.58,0,1.08,0.18,1.42,0.52
			c0.58,0.58,0.55,1.44,0.55,2.22C80.91,60.92,80.94,61.91,80.36,62.49z M79.94,58.35c-0.29-0.3-0.67-0.41-1.1-0.41h-1.22v4.53h1.22
			c0.43,0,0.81-0.11,1.1-0.41c0.39-0.4,0.37-1.23,0.37-1.92C80.31,59.46,80.33,58.75,79.94,58.35z"/>
		<path class="st0" d="M82.31,63.01v-5.6h3.48v0.53h-2.88v1.97h2.45v0.53h-2.45v2.02h2.88v0.54H82.31z"/>
		<path class="st0" d="M88.47,63.05c-0.84,0-1.39-0.21-1.92-0.74l0.41-0.41c0.46,0.46,0.9,0.61,1.53,0.61
			c0.82,0,1.32-0.39,1.32-1.04c0-0.29-0.09-0.54-0.27-0.7c-0.18-0.16-0.32-0.2-0.73-0.27l-0.65-0.1c-0.44-0.07-0.79-0.21-1.03-0.42
			c-0.28-0.25-0.42-0.6-0.42-1.05c0-0.95,0.68-1.58,1.79-1.58c0.71,0,1.19,0.18,1.67,0.61l-0.38,0.39
			c-0.35-0.31-0.72-0.48-1.31-0.48c-0.75,0-1.18,0.42-1.18,1.04c0,0.28,0.08,0.5,0.25,0.64c0.17,0.15,0.46,0.26,0.75,0.31l0.61,0.09
			c0.53,0.08,0.79,0.19,1.02,0.39c0.31,0.26,0.47,0.64,0.47,1.11C90.41,62.45,89.64,63.05,88.47,63.05z"/>
		<path class="st0" d="M94.92,63.01l-0.45-1.27h-2.45l-0.45,1.27h-0.64l2.06-5.6h0.5l2.05,5.6H94.92z M93.26,58.27l-1.05,2.96h2.09
			L93.26,58.27z"/>
		<path class="st0" d="M99.68,63.01l-1.27-2.48h-1.34v2.48h-0.6v-5.6h2.15c0.97,0,1.66,0.59,1.66,1.56c0,0.82-0.5,1.35-1.22,1.5
			l1.33,2.54H99.68z M98.55,57.94h-1.49V60h1.49c0.65,0,1.12-0.34,1.12-1.02S99.2,57.94,98.55,57.94z"/>
		<path class="st0" d="M104.83,63.01l-1.27-2.48h-1.34v2.48h-0.6v-5.6h2.15c0.97,0,1.66,0.59,1.66,1.56c0,0.82-0.5,1.35-1.22,1.5
			l1.33,2.54H104.83z M103.71,57.94h-1.49V60h1.49c0.65,0,1.12-0.34,1.12-1.02S104.36,57.94,103.71,57.94z"/>
		<path class="st0" d="M109.95,62.47c-0.38,0.38-0.87,0.58-1.43,0.58c-0.56,0-1.05-0.2-1.43-0.58c-0.53-0.53-0.53-1.08-0.53-2.26
			c0-1.19,0-1.74,0.53-2.27c0.38-0.38,0.87-0.58,1.43-0.58c0.56,0,1.05,0.2,1.43,0.58c0.53,0.53,0.53,1.08,0.53,2.27
			C110.48,61.39,110.48,61.95,109.95,62.47z M109.49,58.3c-0.24-0.25-0.6-0.4-0.97-0.4c-0.37,0-0.72,0.15-0.97,0.4
			c-0.35,0.36-0.39,0.74-0.39,1.91c0,1.17,0.04,1.55,0.39,1.91c0.24,0.25,0.6,0.4,0.97,0.4c0.37,0,0.72-0.15,0.97-0.4
			c0.35-0.36,0.39-0.74,0.39-1.91C109.88,59.04,109.84,58.66,109.49,58.3z"/>
		<path class="st0" d="M111.89,63.01v-5.6h0.6v5.06h2.86v0.54H111.89z"/>
		<path class="st0" d="M116.39,63.01v-5.6h0.6v5.06h2.86v0.54H116.39z"/>
		<path class="st0" d="M123.79,62.47c-0.38,0.38-0.87,0.58-1.43,0.58c-0.56,0-1.05-0.2-1.43-0.58c-0.53-0.53-0.53-1.08-0.53-2.26
			c0-1.19,0-1.74,0.53-2.27c0.38-0.38,0.87-0.58,1.43-0.58c0.56,0,1.05,0.2,1.43,0.58c0.53,0.53,0.53,1.08,0.53,2.27
			C124.32,61.39,124.32,61.95,123.79,62.47z M123.33,58.3c-0.24-0.25-0.6-0.4-0.97-0.4c-0.37,0-0.72,0.15-0.97,0.4
			c-0.35,0.36-0.39,0.74-0.39,1.91c0,1.17,0.04,1.55,0.39,1.91c0.24,0.25,0.6,0.4,0.97,0.4c0.37,0,0.72-0.15,0.97-0.4
			c0.35-0.36,0.39-0.74,0.39-1.91C123.72,59.04,123.68,58.66,123.33,58.3z"/>
		<path class="st0" d="M127.16,63.05c-0.84,0-1.39-0.21-1.92-0.74l0.41-0.41c0.46,0.46,0.9,0.61,1.53,0.61
			c0.82,0,1.32-0.39,1.32-1.04c0-0.29-0.09-0.54-0.27-0.7c-0.18-0.16-0.32-0.2-0.73-0.27l-0.65-0.1c-0.44-0.07-0.79-0.21-1.03-0.42
			c-0.28-0.25-0.42-0.6-0.42-1.05c0-0.95,0.68-1.58,1.79-1.58c0.71,0,1.19,0.18,1.67,0.61l-0.38,0.39
			c-0.35-0.31-0.72-0.48-1.31-0.48c-0.75,0-1.18,0.42-1.18,1.04c0,0.28,0.08,0.5,0.25,0.64c0.17,0.15,0.46,0.26,0.75,0.31l0.61,0.09
			c0.53,0.08,0.79,0.19,1.02,0.39c0.31,0.26,0.47,0.64,0.47,1.11C129.1,62.45,128.33,63.05,127.16,63.05z"/>
		<path class="st0" d="M135.64,62.49c-0.34,0.34-0.83,0.52-1.42,0.52h-1.92v-5.6h1.92c0.58,0,1.08,0.18,1.42,0.52
			c0.58,0.58,0.55,1.44,0.55,2.22C136.19,60.92,136.22,61.91,135.64,62.49z M135.23,58.35c-0.29-0.3-0.67-0.41-1.1-0.41h-1.22v4.53
			h1.22c0.43,0,0.81-0.11,1.1-0.41c0.39-0.4,0.37-1.23,0.37-1.92C135.59,59.46,135.61,58.75,135.23,58.35z"/>
		<path class="st0" d="M137.6,63.01v-5.6h3.48v0.53h-2.88v1.97h2.45v0.53h-2.45v2.02h2.88v0.54H137.6z"/>
		<path class="st0" d="M68.54,72.44l-0.45-1.27h-2.45l-0.45,1.27h-0.64l2.06-5.6h0.5l2.05,5.6H68.54z M66.88,67.7l-1.05,2.96h2.09
			L66.88,67.7z"/>
		<path class="st0" d="M70.08,72.44v-5.6h0.6v5.06h2.86v0.54H70.08z"/>
		<path class="st0" d="M75.6,67.38v5.06H75v-5.06h-1.62v-0.53h3.84v0.53H75.6z"/>
		<path class="st0" d="M81.06,72.44l-0.45-1.27h-2.45l-0.45,1.27h-0.64l2.06-5.6h0.5l2.05,5.6H81.06z M79.4,67.7l-1.05,2.96h2.09
			L79.4,67.7z"/>
		<path class="st0" d="M86.64,70.14h-1.49v2.3h-0.6v-5.6h2.08c1.02,0,1.73,0.64,1.73,1.64C88.37,69.49,87.66,70.14,86.64,70.14z
			 M86.58,67.38h-1.43v2.23h1.43c0.7,0,1.19-0.38,1.19-1.12C87.77,67.75,87.28,67.38,86.58,67.38z"/>
		<path class="st0" d="M92.73,72.44l-1.27-2.48h-1.34v2.48h-0.6v-5.6h2.15c0.97,0,1.66,0.59,1.66,1.56c0,0.82-0.5,1.35-1.22,1.5
			l1.33,2.54H92.73z M91.6,67.38h-1.49v2.05h1.49c0.65,0,1.12-0.34,1.12-1.02S92.25,67.38,91.6,67.38z"/>
		<path class="st0" d="M94.67,72.44v-5.6h3.48v0.53h-2.88v1.97h2.45v0.53h-2.45v2.02h2.88v0.54H94.67z"/>
		<path class="st0" d="M100.82,72.49c-0.84,0-1.39-0.21-1.92-0.74l0.41-0.41c0.46,0.46,0.9,0.61,1.53,0.61
			c0.82,0,1.32-0.39,1.32-1.04c0-0.29-0.09-0.54-0.27-0.7c-0.18-0.16-0.32-0.2-0.73-0.27l-0.65-0.1c-0.44-0.07-0.79-0.21-1.03-0.42
			c-0.28-0.25-0.42-0.6-0.42-1.05c0-0.95,0.68-1.58,1.79-1.58c0.71,0,1.19,0.18,1.67,0.61l-0.38,0.39
			c-0.35-0.31-0.72-0.48-1.31-0.48c-0.75,0-1.18,0.42-1.18,1.04c0,0.28,0.08,0.5,0.25,0.64c0.17,0.15,0.46,0.26,0.75,0.31l0.61,0.09
			c0.53,0.08,0.79,0.19,1.02,0.39c0.31,0.26,0.47,0.64,0.47,1.11C102.76,71.88,101.99,72.49,100.82,72.49z"/>
		<path class="st0" d="M105.65,67.38v5.06h-0.6v-5.06h-1.62v-0.53h3.84v0.53H105.65z"/>
		<path class="st0" d="M111.11,72.44l-0.45-1.27h-2.45l-0.45,1.27h-0.64l2.06-5.6h0.5l2.05,5.6H111.11z M109.45,67.7l-1.05,2.96
			h2.09L109.45,67.7z"/>
		<path class="st0" d="M114.32,72.49c-0.55,0-1.05-0.2-1.43-0.58c-0.53-0.53-0.53-1.08-0.53-2.26s0-1.74,0.53-2.27
			c0.38-0.38,0.88-0.58,1.43-0.58c1.01,0,1.75,0.61,1.94,1.67h-0.61c-0.15-0.68-0.63-1.13-1.33-1.13c-0.37,0-0.72,0.14-0.97,0.39
			c-0.35,0.36-0.39,0.75-0.39,1.92s0.04,1.56,0.39,1.92c0.24,0.25,0.6,0.39,0.97,0.39c0.7,0,1.19-0.45,1.34-1.13h0.6
			C116.08,71.88,115.32,72.49,114.32,72.49z"/>
		<path class="st0" d="M117.58,72.44v-5.6h0.6v5.6H117.58z"/>
		<path class="st0" d="M122.97,71.91c-0.38,0.38-0.87,0.58-1.43,0.58s-1.05-0.2-1.43-0.58c-0.53-0.53-0.53-1.08-0.53-2.26
			s0-1.74,0.53-2.27c0.38-0.38,0.87-0.58,1.43-0.58s1.05,0.2,1.43,0.58c0.53,0.53,0.53,1.08,0.53,2.27S123.5,71.38,122.97,71.91z
			 M122.51,67.73c-0.24-0.25-0.6-0.4-0.97-0.4c-0.37,0-0.72,0.15-0.97,0.4c-0.35,0.36-0.39,0.74-0.39,1.91s0.04,1.55,0.39,1.91
			c0.24,0.25,0.6,0.4,0.97,0.4c0.37,0,0.72-0.15,0.97-0.4c0.35-0.36,0.39-0.74,0.39-1.91S122.86,68.09,122.51,67.73z M121.68,66.3
			h-0.52l0.69-1.2h0.68L121.68,66.3z"/>
		<path class="st0" d="M128.48,72.44l-2.97-4.49v4.49h-0.6v-5.6h0.57l2.97,4.47v-4.47h0.6v5.6H128.48z"/>
	</g>
	<polygon class="st1" points="0,62.82 36.13,49.42 36.13,29 0,18.75 	"/>
	<polygon class="st0" points="11.8,69.74 38.34,51.73 38.34,25.19 11.8,12.59 	"/>
	<g>
		<g>
			<polygon class="st2" points="48.78,17.53 47.43,17.53 47.43,8.94 21.56,1.77 21.56,13.26 20.21,13.26 20.21,0 48.78,7.91 			"/>
		</g>
		<g>
			<polygon class="st2" points="20.21,79.71 20.21,66.01 21.56,66.01 21.56,77.74 47.43,67.69 47.43,56.45 48.78,56.45 48.78,68.61 
							"/>
		</g>
	</g>
	<g>
		<path class="st2" d="M47.2,31.56h-2.49v4.87h-2.53V23.5h5.02c2.67,0,4.27,1.84,4.27,4.03C51.47,29.73,49.88,31.56,47.2,31.56z
			 M47.08,25.75h-2.36v3.54h2.36c1.15,0,1.87-0.71,1.87-1.76C48.95,26.48,48.22,25.75,47.08,25.75z"/>
		<path class="st2" d="M59.58,36.44l-0.76-2.29h-4.6l-0.78,2.29H50.8l4.71-12.94h1.98l4.73,12.94H59.58z M56.56,27.31l-1.64,4.71
			h3.22L56.56,27.31z"/>
		<path class="st2" d="M72.54,36.44v-7.54l-2.47,4.91h-1.71l-2.49-4.91v7.54h-2.53V23.5h2.49l3.38,7l3.36-7h2.49v12.94H72.54z"/>
		<path class="st2" d="M82.62,31.56h-2.49v4.87h-2.53V23.5h5.02c2.67,0,4.27,1.84,4.27,4.03C86.89,29.73,85.29,31.56,82.62,31.56z
			 M82.5,25.75h-2.36v3.54h2.36c1.15,0,1.87-0.71,1.87-1.76C84.37,26.48,83.64,25.75,82.5,25.75z"/>
		<path class="st2" d="M95,36.44l-0.76-2.29h-4.6l-0.78,2.29h-2.64l4.71-12.94h1.98l4.73,12.94H95z M91.98,27.31l-1.64,4.71h3.22
			L91.98,27.31z"/>
	</g>
	<g>
		<path class="st2" d="M47.27,52.4V39.46h1.38V52.4H47.27z"/>
		<path class="st2" d="M60.17,52.4L53.3,42.02V52.4h-1.38V39.46h1.31L60.1,49.8V39.46h1.38V52.4H60.17z"/>
		<path class="st2" d="M72.24,51.02c-0.91,0.98-2.13,1.49-3.45,1.49c-1.27,0-2.43-0.47-3.31-1.35c-1.22-1.22-1.22-2.49-1.22-5.23
			c0-2.74,0-4.02,1.22-5.23c0.87-0.87,2.02-1.34,3.31-1.34c2.47,0,4.14,1.6,4.53,3.87h-1.38c-0.36-1.64-1.53-2.63-3.14-2.63
			c-0.85,0-1.67,0.35-2.24,0.93c-0.82,0.84-0.91,1.71-0.91,4.42c0,2.71,0.09,3.6,0.91,4.43c0.56,0.58,1.38,0.91,2.24,0.91
			c0.95,0,1.85-0.38,2.45-1.11c0.53-0.64,0.73-1.34,0.73-2.34v-0.98h-3.18v-1.22h4.56v2.05C73.35,49.17,73.04,50.17,72.24,51.02z"/>
		<path class="st2" d="M76.09,52.4V39.46h8.03v1.24h-6.65v4.56h5.67v1.24h-5.67v4.67h6.65v1.24H76.09z"/>
		<path class="st2" d="M94.77,52.4L87.9,42.02V52.4h-1.38V39.46h1.31L94.7,49.8V39.46h1.38V52.4H94.77z"/>
		<path class="st2" d="M99.35,52.4V39.46h1.38V52.4H99.35z"/>
		<path class="st2" d="M104,52.4V39.46h8.03v1.24h-6.65v4.56h5.67v1.24h-5.67v4.67h6.65v1.24H104z"/>
		<path class="st2" d="M121.87,52.4l-2.94-5.74h-3.11v5.74h-1.38V39.46h4.96c2.25,0,3.83,1.36,3.83,3.6c0,1.89-1.15,3.13-2.82,3.47
			l3.07,5.87H121.87z M119.27,40.7h-3.45v4.74h3.45c1.51,0,2.58-0.78,2.58-2.36S120.78,40.7,119.27,40.7z"/>
		<path class="st2" d="M127.08,38.21h-1.2l1.6-2.78h1.56L127.08,38.21z M125.88,52.4V39.46h1.38V52.4H125.88z"/>
		<path class="st2" d="M138.08,52.4l-1.04-2.93h-5.65l-1.04,2.93h-1.47l4.76-12.94h1.16l4.74,12.94H138.08z M134.24,41.44
			l-2.43,6.83h4.83L134.24,41.44z"/>
	</g>
</g>
</svg>
