<?xml version="1.0" encoding="utf-8"?>
<!-- Generator: Adobe Illustrator 25.2.3, SVG Export Plug-In . SVG Version: 6.00 Build 0)  -->
<svg version="1.1" id="Layer_1" xmlns="http://www.w3.org/2000/svg" xmlns:xlink="http://www.w3.org/1999/xlink" x="0px" y="0px"
	 viewBox="0 0 50 50" style="enable-background:new 0 0 50 50;" xml:space="preserve">
<style type="text/css">
	.st0{fill:#606060;}
</style>
<g>
	<path class="st0" d="M42.6,7.25C37.92,2.58,31.7,0,25.08,0c-5.2,0-10.18,1.6-14.4,4.62c-0.44,0.31-0.54,0.92-0.23,1.36
		c0.31,0.44,0.92,0.54,1.36,0.23c3.88-2.78,8.47-4.25,13.26-4.25c12.58,0,22.81,10.23,22.81,22.81c0,12.58-10.23,22.81-22.81,22.81
		c-3.83,0-7.62-0.97-10.96-2.8c-0.22-0.12-0.48-0.15-0.72-0.09L2.53,47.63l2.96-10.58c0.07-0.26,0.04-0.53-0.1-0.76
		c-2.04-3.48-3.12-7.47-3.12-11.53c0-4.79,1.47-9.38,4.25-13.26c0.31-0.44,0.21-1.05-0.23-1.36c-0.44-0.31-1.05-0.21-1.36,0.23
		c-3.02,4.22-4.62,9.2-4.62,14.4c0,4.27,1.1,8.46,3.18,12.15L0.18,48.76c-0.09,0.34,0,0.7,0.25,0.95C0.62,49.9,0.87,50,1.12,50
		c0.09,0,0.17-0.01,0.25-0.03l12.15-3.28c3.54,1.87,7.52,2.85,11.55,2.85c6.62,0,12.84-2.58,17.51-7.25
		c4.68-4.68,7.25-10.9,7.25-17.51C49.85,18.15,47.28,11.93,42.6,7.25z"/>
	<path class="st0" d="M41.09,36.61c0.45,0.3,1.06,0.18,1.35-0.27c2.29-3.43,3.5-7.43,3.5-11.57c0-5.57-2.17-10.81-6.11-14.75
		s-9.18-6.11-14.75-6.11s-10.81,2.17-14.75,6.11s-6.11,9.18-6.11,14.75c0,3.71,0.99,7.36,2.86,10.54l0.63,1.07L5.8,43.2
		c-0.09,0.34,0,0.7,0.25,0.95S6.66,44.49,7,44.4l7.03-1.9l1.03,0.57c3.05,1.68,6.52,2.56,10.02,2.56c4.14,0,8.14-1.21,11.57-3.5
		c0.45-0.3,0.57-0.91,0.27-1.35s-0.91-0.57-1.35-0.27c-3.11,2.07-6.73,3.17-10.48,3.17c-3.18,0-6.32-0.8-9.08-2.32l-1.38-0.76
		c-0.22-0.12-0.48-0.15-0.72-0.09l-5.76,1.56l1.56-5.56c0.07-0.26,0.04-0.53-0.1-0.76l-0.84-1.43c-1.69-2.88-2.59-6.19-2.59-9.55
		c0-10.43,8.48-18.91,18.91-18.91s18.91,8.48,18.91,18.91c0,3.75-1.1,7.38-3.17,10.48C40.52,35.7,40.64,36.31,41.09,36.61z"/>
	<path class="st0" d="M21.52,21.77l0.06-0.08c0.87-0.98,0.65-2.14,0.31-2.93c-0.5-1.17-1.81-4.17-1.94-4.46
		c-0.19-0.49-0.84-1.27-2.14-1.29c-1.01-0.02-1.35,0.01-1.43,0.02c-0.01,0-0.02,0-0.02,0c-0.15,0.02-3.67,0.59-4.27,5.86
		c-0.28,2.42,0.84,5.31,3.34,8.58c2.76,3.62,5.3,5.78,9.05,7.69c1.87,0.95,4.6,2.07,7.14,2.07c0.08,0,0.16,0,0.25,0
		c2.85-0.08,4.38-1.27,5.15-2.25c0.82-1.04,1-2.07,1.02-2.24c0.02-0.11,0.06-0.47,0.08-1.4c0.04-1.3-0.71-1.98-1.19-2.2
		c-0.27-0.13-3.07-1.52-4.21-2.08c-0.77-0.38-1.91-0.59-2.94,0.52c-0.01,0.01-0.01,0.01-0.02,0.02c-0.14,0.12-0.28,0.3-0.69,0.86
		c-0.26,0.34-0.77,1.03-0.99,1.26c-0.46,0.03-2-0.64-4.17-2.33c-1.37-1.06-2.84-2.72-3.65-4.12c-0.01-0.02-0.01-0.06-0.01-0.07
		C20.59,22.85,21.13,22.22,21.52,21.77z M22.71,28.93c0.65,0.5,1.93,1.44,3.16,2.07c0.58,0.3,2.36,1.2,3.45,0.23
		c0.3-0.27,0.73-0.83,1.3-1.6c0.17-0.22,0.37-0.49,0.45-0.59c0.05-0.05,0.09-0.09,0.13-0.13c0.18-0.19,0.26-0.28,0.65-0.09
		c1.18,0.57,4.11,2.03,4.22,2.08c0.04,0.04,0.09,0.15,0.09,0.39c-0.02,0.81-0.05,1.1-0.06,1.16c0,0.02,0,0.01,0,0.03
		c-0.01,0.07-0.13,0.72-0.67,1.36c-0.76,0.91-1.98,1.39-3.62,1.44c-2.2,0.07-4.71-0.97-6.44-1.85c-3.51-1.79-5.78-3.72-8.38-7.13
		c-2.15-2.82-3.17-5.3-2.95-7.17c0.41-3.54,2.35-4.09,2.61-4.15c0.09-0.01,0.4-0.02,1.14,0c0.23,0,0.35,0.07,0.38,0.1
		c0.05,0.11,1.43,3.26,1.94,4.46c0.26,0.6,0.1,0.78,0.02,0.86c-0.01,0.02-0.03,0.03-0.04,0.04l-0.06,0.07
		c-0.56,0.66-0.96,1.11-1.18,1.34c-0.72,0.74-0.65,1.77-0.28,2.41C19.5,25.87,21.13,27.71,22.71,28.93z"/>
	<path class="st0" d="M8.26,8.92c0.23,0,0.47-0.08,0.66-0.25c0.4-0.36,0.43-0.98,0.07-1.38C8.62,6.89,8,6.86,7.61,7.22l0,0
		C7.21,7.59,7.18,8.2,7.54,8.6C7.73,8.81,8,8.92,8.26,8.92z"/>
	<path class="st0" d="M38.42,38.17L38.42,38.17c-0.36,0.4-0.33,1.02,0.07,1.38c0.19,0.17,0.42,0.25,0.66,0.25
		c0.27,0,0.53-0.11,0.72-0.32c0.36-0.4,0.33-1.02-0.07-1.38S38.79,37.77,38.42,38.17z"/>
</g>
</svg>
